/* XPM */
static char *_[] = {
/* columns rows colors chars-per-pixel */
"64 64 14 1 ",
"  c None",
". c #4E4E4E",
"X c #73747B",
"o c #7E7E7E",
"O c #97989C",
"+ c #9B9B9B",
"@ c #9597A1",
"# c #A4A4A8",
"$ c #ABACAF",
"% c #AEAFB6",
"& c #B8B9BB",
"* c gray79",
"= c #D0D0D0",
"- c gray87",
/* pixels */
"                                                                ",
"                                                                ",
"                        ..........oooooo                        ",
"                        ..........oooooo                        ",
"                  ........XXXXXXOO&&&&oooooo..                  ",
"                  ........XXXXXXOO&&&&oooooo..                  ",
"                ....XXXXXX****========&&&&##....                ",
"                ....XXXXXX****========&&&&##....                ",
"            ......XX********==============**XX......            ",
"            ......XX********==============**XX......            ",
"          ....XXXX********OOOOOOOOOOXX********XXXX....          ",
"          ....XXXX********OOOOOOOOOOXX********XXXX....          ",
"        ....XX********OOOO%%%%%%%%@@@@XXXX********XXoooo        ",
"        ....XX********OOOO%%%%%%%%@@@@XXXX********XXoooo        ",
"        ..XX******XXOO%%%%%%%%%%@@@@@@@@@@XXXX**====OOoo        ",
"        ..XX******XXOO%%%%%%%%%%@@@@@@@@@@XXXX**====OOoo        ",
"      ....XX****XX%%%%%%%%%%%%@@**--@@@@@@@@@@OO====OO....      ",
"      ....XX****XX%%%%%%%%%%%%@@**--@@@@@@@@@@OO====OO....      ",
"    ....XX****XX%%%%%%%%%%%%XXXX**--XX@@@@@@%%%%OO==**XX....    ",
"    ....XX****XX%%%%%%%%%%%%XXXX**--XX@@@@@@%%%%OO==**XX....    ",
"    ..XX******OO%%%%%%%%XX--XX--**----XX--%%%%%%XX******XX..    ",
"    ..XX******OO%%%%%%%%XX--XX--**----XX--%%%%%%XX******XX..    ",
"    ..XX****OO%%%%%%%%XX--@@--**@@@@**--%%--%%@@@@XX****OO++    ",
"    ..XX****OO%%%%%%%%XX--@@--**@@@@**--%%--%%@@@@XX****OO++    ",
"  ....XX====OO%%%%%%XXXX************======--XX@@@@XX**==$$++++  ",
"  ....XX====OO%%%%%%XXXX************======--XX@@@@XX**==$$++++  ",
"  ..XX====OO%%%%%%@@XXXXXXXXXXXXXXOOOOOOOOXXXXXX@@@@OO====$$++  ",
"  ..XX====OO%%%%%%@@XXXXXXXXXXXXXXOOOOOOOOXXXXXX@@@@OO====$$++  ",
"  ..OO====OO%%%%@@@@XXXXXXXXXX--========XXXXXXXX%%%%OO====$$++  ",
"  ..OO====OO%%%%@@@@XXXXXXXXXX--========XXXXXXXX%%%%OO====$$++  ",
"  ooOO====OO%%@@@@XXXXXXXXXX----====******XXXXOO%%%%OO====$$++  ",
"  ooOO====OO%%@@@@XXXXXXXXXX----====******XXXXOO%%%%OO====$$++  ",
"  ooOO====XX@@@@@@XXXXXXXX----%%%%****@@@@XXOO%%%%%%OO====OO++  ",
"  ooOO====XX@@@@@@XXXXXXXX----%%%%****@@@@XXOO%%%%%%OO====OO++  ",
"  ooOO==**XX@@@@XXXXXX**OO--%%OOXX****XXOOOO%%%%%%%%OO====OOoo  ",
"  ooOO==**XX@@@@XXXXXX**OO--%%OOXX****XXOOOO%%%%%%%%OO====OOoo  ",
"  ooOO****XX@@@@XXXXXX==OO--OO--XX****OO==OO%%%%%%%%OO====OOoo  ",
"  ooOO****XX@@@@XXXXXX==OO--OO--XX****OO==OO%%%%%%%%OO====OOoo  ",
"  oo..XX****XX@@XXXXOO--OO------@@**==%%==OOOO%%%%OO====OOoooo  ",
"  oo..XX****XX@@XXXXOO--OO------@@**==%%==OOOO%%%%OO====OOoooo  ",
"    ..XX****XX@@OOOOOOOOXX--------========OOOO%%%%OO====OOoo    ",
"    ..XX****XX@@OOOOOOOOXX--------========OOOO%%%%OO====OOoo    ",
"    ..XX******OO%%OOOOXXXX----------======OOOO%%OO======OO..    ",
"    ..XX******OO%%OOOOXXXX----------======OOOO%%OO======OO..    ",
"    ....XX**==OO%%OOXXXXXXXX------OOOO==OOOOOO%%OO====OO....    ",
"    ....XX**==OO%%OOXXXXXXXX------OOOO==OOOOOO%%OO====OO....    ",
"      ....OO====XX@@@@XXOOOOOO----------OO%%%%OO====XX....      ",
"      ....OO====XX@@@@XXOOOOOO----------OO%%%%OO====XX....      ",
"        ooOO==****XXXX%%%%OOOO%%%%%%%%%%%%OOOO====**XX..        ",
"        ooOO==****XXXX%%%%OOOO%%%%%%%%%%%%OOOO====**XX..        ",
"        ooooXX******==OOOO%%%%%%%%%%%%OOOO======**XX....        ",
"        ooooXX******==OOOO%%%%%%%%%%%%OOOO======**XX....        ",
"          ....XXOO========OOOOOOOOOOOO======**XXXX....          ",
"          ....XXOO========OOOOOOOOOOOO======**XXXX....          ",
"            ..ooooOO======================**XX......            ",
"            ..ooooOO======================**XX......            ",
"                ooooOOOOOO============OOXXXX....                ",
"                ooooOOOOOO============OOXXXX....                ",
"                  ooooooooOOOOOOOOOOXX........                  ",
"                  ooooooooOOOOOOOOOOXX........                  ",
"                        oooooooooo......                        ",
"                        oooooooooo......                        ",
"                                                                ",
"                                                                "
};
