/* XPM */
static char * 1_xpm[] = {
"64 64 14 1",
" 	c #9CDB43",
".	c #4E4E4E",
"+	c #7E7E7E",
"@	c #73747B",
"#	c #97989C",
"$	c #B8B9BB",
"%	c #C9C9C9",
"&	c #D0D0D0",
"*	c #A4A4A8",
"=	c #AEAFB6",
"-	c #9597A1",
";	c #DEDEDE",
">	c #9B9B9B",
",	c #ABACAF",
"                                                                ",
"                                                                ",
"                        ..........++++++                        ",
"                        ..........++++++                        ",
"                  ........@@@@@@##$$$$++++++..                  ",
"                  ........@@@@@@##$$$$++++++..                  ",
"                ....@@@@@@%%%%&&&&&&&&$$$$**....                ",
"                ....@@@@@@%%%%&&&&&&&&$$$$**....                ",
"            ......@@%%%%%%%%&&&&&&&&&&&&&&%%@@......            ",
"            ......@@%%%%%%%%&&&&&&&&&&&&&&%%@@......            ",
"          ....@@@@%%%%%%%%##########@@%%%%%%%%@@@@....          ",
"          ....@@@@%%%%%%%%##########@@%%%%%%%%@@@@....          ",
"        ....@@%%%%%%%%####========----@@@@%%%%%%%%@@++++        ",
"        ....@@%%%%%%%%####========----@@@@%%%%%%%%@@++++        ",
"        ..@@%%%%%%@@##==========----------@@@@%%&&&&##++        ",
"        ..@@%%%%%%@@##==========----------@@@@%%&&&&##++        ",
"      ....@@%%%%@@============--%%;;----------##&&&&##....      ",
"      ....@@%%%%@@============--%%;;----------##&&&&##....      ",
"    ....@@%%%%@@============@@@@%%;;@@------====##&&%%@@....    ",
"    ....@@%%%%@@============@@@@%%;;@@------====##&&%%@@....    ",
"    ..@@%%%%%%##========@@;;@@;;%%;;;;@@;;======@@%%%%%%@@..    ",
"    ..@@%%%%%%##========@@;;@@;;%%;;;;@@;;======@@%%%%%%@@..    ",
"    ..@@%%%%##========@@;;--;;%%----%%;;==;;==----@@%%%%##>>    ",
"    ..@@%%%%##========@@;;--;;%%----%%;;==;;==----@@%%%%##>>    ",
"  ....@@&&&&##======@@@@%%%%%%%%%%%%&&&&&&;;@@----@@%%&&,,>>>>  ",
"  ....@@&&&&##======@@@@%%%%%%%%%%%%&&&&&&;;@@----@@%%&&,,>>>>  ",
"  ..@@&&&&##======--@@@@@@@@@@@@@@########@@@@@@----##&&&&,,>>  ",
"  ..@@&&&&##======--@@@@@@@@@@@@@@########@@@@@@----##&&&&,,>>  ",
"  ..##&&&&##====----@@@@@@@@@@;;&&&&&&&&@@@@@@@@====##&&&&,,>>  ",
"  ..##&&&&##====----@@@@@@@@@@;;&&&&&&&&@@@@@@@@====##&&&&,,>>  ",
"  ++##&&&&##==----@@@@@@@@@@;;;;&&&&%%%%%%@@@@##====##&&&&,,>>  ",
"  ++##&&&&##==----@@@@@@@@@@;;;;&&&&%%%%%%@@@@##====##&&&&,,>>  ",
"  ++##&&&&@@------@@@@@@@@;;;;====%%%%----@@##======##&&&&##>>  ",
"  ++##&&&&@@------@@@@@@@@;;;;====%%%%----@@##======##&&&&##>>  ",
"  ++##&&%%@@----@@@@@@%%##;;==##@@%%%%@@####========##&&&&##++  ",
"  ++##&&%%@@----@@@@@@%%##;;==##@@%%%%@@####========##&&&&##++  ",
"  ++##%%%%@@----@@@@@@&&##;;##;;@@%%%%##&&##========##&&&&##++  ",
"  ++##%%%%@@----@@@@@@&&##;;##;;@@%%%%##&&##========##&&&&##++  ",
"  ++..@@%%%%@@--@@@@##;;##;;;;;;--%%&&==&&####====##&&&&##++++  ",
"  ++..@@%%%%@@--@@@@##;;##;;;;;;--%%&&==&&####====##&&&&##++++  ",
"    ..@@%%%%@@--########@@;;;;;;;;&&&&&&&&####====##&&&&##++    ",
"    ..@@%%%%@@--########@@;;;;;;;;&&&&&&&&####====##&&&&##++    ",
"    ..@@%%%%%%##==####@@@@;;;;;;;;;;&&&&&&####==##&&&&&&##..    ",
"    ..@@%%%%%%##==####@@@@;;;;;;;;;;&&&&&&####==##&&&&&&##..    ",
"    ....@@%%&&##==##@@@@@@@@;;;;;;####&&######==##&&&&##....    ",
"    ....@@%%&&##==##@@@@@@@@;;;;;;####&&######==##&&&&##....    ",
"      ....##&&&&@@----@@######;;;;;;;;;;##====##&&&&@@....      ",
"      ....##&&&&@@----@@######;;;;;;;;;;##====##&&&&@@....      ",
"        ++##&&%%%%@@@@====####============####&&&&%%@@..        ",
"        ++##&&%%%%@@@@====####============####&&&&%%@@..        ",
"        ++++@@%%%%%%&&####============####&&&&&&%%@@....        ",
"        ++++@@%%%%%%&&####============####&&&&&&%%@@....        ",
"          ....@@##&&&&&&&&############&&&&&&%%@@@@....          ",
"          ....@@##&&&&&&&&############&&&&&&%%@@@@....          ",
"            ..++++##&&&&&&&&&&&&&&&&&&&&&&%%@@......            ",
"            ..++++##&&&&&&&&&&&&&&&&&&&&&&%%@@......            ",
"                ++++######&&&&&&&&&&&&##@@@@....                ",
"                ++++######&&&&&&&&&&&&##@@@@....                ",
"                  ++++++++##########@@........                  ",
"                  ++++++++##########@@........                  ",
"                        ++++++++++......                        ",
"                        ++++++++++......                        ",
"                                                                ",
"                                                                "};
