/* XPM */
static char * 10_xpm[] = {
"64 64 12 1",
" 	c #9CDB43",
".	c #4E4E4E",
"+	c #9597A1",
"@	c #73747B",
"#	c #7E7E7E",
"$	c #6D6F7D",
"%	c #C9C9C9",
"&	c #97989C",
"*	c #D0D0D0",
"=	c #AEAFB6",
"-	c #DEDEDE",
";	c #93949E",
"                                                                ",
"                                                                ",
"                    ......................                      ",
"                    ......................                      ",
"                  ....++++++......@@@@@@....##                  ",
"                  ....++++++......@@@@@@....##                  ",
"                ....$$$$$$....@@@@%%%%%%@@&&####                ",
"                ....$$$$$$....@@@@%%%%%%@@&&####                ",
"                ..++++++....@@%%%%%%%%%%****&&####              ",
"                ..++++++....@@%%%%%%%%%%****&&####              ",
"              ....$$$$$$..@@%%%%%%@@@@&&******&&..              ",
"              ....$$$$$$..@@%%%%%%@@@@&&******&&..              ",
"              ..++++++....%%%%%%@@======&&****%%....            ",
"              ..++++++....%%%%%%@@======&&****%%....            ",
"            ....$$$$$$..@@%%@@@@==========&&@@%%@@..            ",
"            ....$$$$$$..@@%%@@@@==========&&@@%%@@..            ",
"            ..++++++....@@%%++========--==++++%%@@....          ",
"            ..++++++....@@%%++========--==++++%%@@....          ",
"            ..$$$$$$..@@%%@@======&&&&--++++++@@%%@@..          ",
"            ..$$$$$$..@@%%@@======&&&&--++++++@@%%@@..          ",
"            ..++++++..%%%%&&====&&&&----@@++++@@%%%%..          ",
"            ..++++++..%%%%&&====&&&&----@@++++@@%%%%..          ",
"          ....$$$$$$..%%**======----%%++----++++%%%%##          ",
"          ....$$$$$$..%%**======----%%++----++++%%%%##          ",
"          ..++++++..##****====&&%%%%%%%%%%--@@++****####        ",
"          ..++++++..##****====&&%%%%%%%%%%--@@++****####        ",
"          ..$$$$$$##&&**&&====@@@@@@@@@@@@@@@@==&&**&&..        ",
"          ..$$$$$$##&&**&&====@@@@@@@@@@@@@@@@==&&**&&..        ",
"          ..++++==##&&**&&==++@@@@@@--%%%%@@&&==&&**@@..        ",
"          ..++++==##&&**&&==++@@@@@@--%%%%@@&&==&&**@@..        ",
"          ..$$;;;;##&&**&&++@@@@@@----%%%%&&&&==@@%%@@..        ",
"          ..$$;;;;##&&**&&++@@@@@@----%%%%&&&&==@@%%@@..        ",
"          ..======##&&%%@@++@@@@@@--++**==&&&&++@@%%@@..        ",
"          ..======##&&%%@@++@@@@@@--++**==&&&&++@@%%@@..        ",
"          ..;;;;;;##@@%%@@++@@@@@@++&&**&&&&++++@@%%&&##        ",
"          ..;;;;;;##@@%%@@++@@@@@@++&&**&&&&++++@@%%&&##        ",
"          ..======..@@%%@@++@@@@@@&&--**&&@@++++@@**&&##        ",
"          ..======..@@%%@@++@@@@@@&&--**&&@@++++@@**&&##        ",
"          ..;;;;$$....%%%%++@@@@&&----%%++@@@@++****####        ",
"          ..;;;;$$....%%%%++@@@@&&----%%++@@@@++****####        ",
"          ..##++++++..%%%%++&&&&&&----%%%%@@&&==****##          ",
"          ..##++++++..%%%%++&&&&&&----%%%%@@&&==****##          ",
"            ..$$$$$$..%%%%&&&&&&&&------%%&&&&&&****##          ",
"            ..$$$$$$..%%%%&&&&&&&&------%%&&&&&&****##          ",
"            ..++++++..@@**&&&&&&@@----@@**&&&&&&**&&##          ",
"            ..++++++..@@**&&&&&&@@----@@**&&&&&&**&&##          ",
"            ..$$$$$$..##&&**++++@@@@------====**&&####          ",
"            ..$$$$$$..##&&**++++@@@@------====**&&####          ",
"            ....++====##&&%%@@@@++&&======&&&&**&&##            ",
"            ....++====##&&%%@@@@++&&======&&&&**&&##            ",
"              ..;;;;;;##..%%%%%%&&======&&******####            ",
"              ..;;;;;;##..%%%%%%&&======&&******####            ",
"              ####====++..@@******&&&&&&******&&##              ",
"              ####====++..@@******&&&&&&******&&##              ",
"                ##$$$$$$..##&&**************&&####              ",
"                ##$$$$$$..##&&**************&&####              ",
"                ....++++==####&&&&******&&&&####                ",
"                ....++++==####&&&&******&&&&####                ",
"                  ..##;;;;;;######&&&&&&######                  ",
"                  ..##;;;;;;######&&&&&&######                  ",
"                    ######################                      ",
"                    ######################                      ",
"                                                                ",
"                                                                "};
