/* XPM */
static char *_1[] = {
/* columns rows colors chars-per-pixel */
"64 64 14 1 ",
"  c None",
". c #4E4E4E",
"X c #6D6F7D",
"o c #73747B",
"O c #7E7E7E",
"+ c #919090",
"@ c #93949E",
"# c #97989C",
"$ c #9597A1",
"% c gray67",
"& c #AEAFB6",
"* c gray79",
"= c #D0D0D0",
"- c gray87",
/* pixels */
"                                                                ",
"                                                                ",
"                        ................OO                      ",
"                        ................OO                      ",
"                    ............oooooo##%%%%OO                  ",
"                    ............oooooo##%%%%OO                  ",
"                ............oooo****========%%%%++              ",
"                ............oooo****========%%%%++              ",
"              ....$$....oooo******==============....            ",
"              ....$$....oooo******==============....            ",
"            ....XX....oo******oo##########********....          ",
"            ....XX....oo******oo##########********....          ",
"          ....$$....oo****oo##&&&&&&&&&&$$oooo******....        ",
"          ....$$....oo****oo##&&&&&&&&&&$$oooo******....        ",
"          ..XXXX..oo**oooo##&&&&&&&&&&$$$$$$oooooo****OO        ",
"          ..XXXX..oo**oooo##&&&&&&&&&&$$$$$$oooooo****OO        ",
"        ....$$....oo**oo&&&&&&&&&&&&**--$$$$$$$$oooo==OOOO      ",
"        ....$$....oo**oo&&&&&&&&&&&&**--$$$$$$$$oooo==OOOO      ",
"        ..XXXX..oo**oo&&&&&&&&&&##oo**--oo$$$$$$$$##====OO      ",
"        ..XXXX..oo**oo&&&&&&&&&&##oo**--oo$$$$$$$$##====OO      ",
"      ....$$....oo**##&&&&&&##--oo--**----oo--$$&&##==**....    ",
"      ....$$....oo**##&&&&&&##--oo--**----oo--$$&&##==**....    ",
"      ..XXXX..oo**##&&&&&&##--$$--**$$$$**--$$--&&&&oo****..    ",
"      ..XXXX..oo**##&&&&&&##--$$--**$$$$**--$$--&&&&oo****..    ",
"    ....$$....##==##&&&&##oo**************====--##$$oo****..OO  ",
"    ....$$....##==##&&&&##oo**************====--##$$oo****..OO  ",
"    ..XXXX..##==##&&&&&&oooooooooooooooo########oooo$$oo**==OO  ",
"    ..XXXX..##==##&&&&&&oooooooooooooooo########oooo$$oo**==OO  ",
"    ..$$$$OO##==##&&&&$$oooooooooo--**======##oooooo$$##====OO  ",
"    ..$$$$OO##==##&&&&$$oooooooooo--**======##oooooo$$##====OO  ",
"    ..XX@@OO##==##&&$$oooooooooo----======****oooooo&&##====OO  ",
"    ..XX@@OO##==##&&$$oooooooooo----======****oooooo&&##====OO  ",
"    ..&&&&OO##==oo$$$$oooooooo----&&&&==**$$$$oooo&&&&##====OO  ",
"    ..&&&&OO##==oo$$$$oooooooo----&&&&==**$$$$oooo&&&&##====OO  ",
"    ..@@@@OO##**oo$$$$oooo**oo--&&####****oooo##&&&&&&##====OO  ",
"    ..@@@@OO##**oo$$$$oooo**oo--&&####****oooo##&&&&&&##====OO  ",
"    ..&&&&OOoo**oo$$$$oooo**##--##--oo****oo==##&&&&&&##====OO  ",
"    ..&&&&OOoo**oo$$$$oooo**##--##--oo****oo==##&&&&&&##====OO  ",
"    ..OO@@....oo**oo$$oooo--##------$$****&&==####&&##====OOOO  ",
"    ..OO@@....oo**oo$$oooo--##------$$****&&==####&&##====OOOO  ",
"      OO$$$$..oo**oo$$########--------========####&&##====OO    ",
"      OO$$$$..oo**oo$$########--------========####&&##====OO    ",
"      ....XX....oo**########oo----------======######====OOOO    ",
"      ....XX....oo**########oo----------======######====OOOO    ",
"        ..$$$$..oo==######oooooo------####==########====OO      ",
"        ..$$$$..oo==######oooooo------####==########====OO      ",
"        ....XX..OO##==oo$$oooo####----------##&&####==OOOO      ",
"        ....XX..OO##==oo$$oooo####----------##&&####==OOOO      ",
"          ..&&&&OO##**oooooo&&####&&&&&&&&&&######====OO        ",
"          ..&&&&OO##**oooooo&&####&&&&&&&&&&######====OO        ",
"          OOOO@@OO..oo****####&&&&&&&&&&&&####======OO..        ",
"          OOOO@@OO..oo****####&&&&&&&&&&&&####======OO..        ",
"            OOOO$$....##======############========....          ",
"            OOOO$$....##======############========....          ",
"              ....XXOOOO####====================....            ",
"              ....XXOOOO####====================....            ",
"                ..OOOOOOOOOO####============OO....              ",
"                ..OOOOOOOOOO####============OO....              ",
"                    OOOOOOOOOOOO########OO....                  ",
"                    OOOOOOOOOOOO########OO....                  ",
"                        OOOOOOOOOOOOOOOO..                      ",
"                        OOOOOOOOOOOOOOOO..                      ",
"                                                                ",
"                                                                "
};
