/* XPM */
static char *_[] = {
/* columns rows colors chars-per-pixel */
"64 64 18 1 ",
"  c None",
". c #4E4E4E",
"X c #6D6F7D",
"o c #73747B",
"O c #7E7E7E",
"+ c #919090",
"@ c #93949E",
"# c #97989C",
"$ c #9B9B9B",
"% c #9597A1",
"& c #A4A4A8",
"* c gray67",
"= c #AEAFB6",
"- c #B8B9BB",
"; c #BABBC0",
": c gray79",
"> c #D0D0D0",
", c gray87",
/* pixels */
"                                                                ",
"                                                                ",
"                      ........OOOOOOOO$$                        ",
"                      ........OOOOOOOO$$                        ",
"                  ......oooo##--**OOOOOO....                    ",
"                  ......oooo##--**OOOOOO....                    ",
"              ......::::::>>>>>>----**++........                ",
"              ......::::::>>>>>>----**++........                ",
"            ....::::::::>>>>>>>>>>>>&&oo....%%....              ",
"            ....::::::::>>>>>>>>>>>>&&oo....%%....              ",
"          ....::::::::##########oo::::::oo....XX..OO            ",
"          ....::::::::##########oo::::::oo....XX..OO            ",
"        ....::::::####========%%%%oooo::::oo....==OOOO          ",
"        ....::::::####========%%%%oooo::::oo....==OOOO          ",
"        ..::::oo####========%%%%%%%%oooooo::##OO@@@@..          ",
"        ..::::oo####========%%%%%%%%oooooo::##OO@@@@..          ",
"      ....::::##==========%%::,,%%%%%%%%oo####OOOO%%....        ",
"      ....::::##==========%%::,,%%%%%%%%oo####OOOO%%....        ",
"      ..::::##==========oooo::,,oo%%%%%%==##>>##..XXXX..        ",
"      ..::::##==========oooo::,,oo%%%%%%==##>>##..XXXX..        ",
"    ....::>>##======oo,,oo,,::,,,,oo,,====##::oo....%%..$$      ",
"    ....::>>##======oo,,oo,,::,,,,oo,,====##::oo....%%..$$      ",
"    ..::>>##======oo,,%%,,::%%%%::,,==,,==%%oo::oo..@@==$$      ",
"    ..::>>##======oo,,%%,,::%%%%::,,==,,==%%oo::oo..@@==$$      ",
"  ..OO>>>>##====oooo::::::::::::>>>>>>,,oo%%oo::ooOO$$;;$$$$    ",
"  ..OO>>>>##====oooo::::::::::::>>>>>>,,oo%%oo::ooOO$$;;$$$$    ",
"  OO>>>>##====%%oooooooooooooo########oooooo%%oo>>##$$====$$    ",
"  OO>>>>##====%%oooooooooooooo########oooooo%%oo>>##$$====$$    ",
"  OO>>>>##==%%%%oooooooooo,,>>>>>>>>oooooooo==##>>##$$;;;;$$    ",
"  OO>>>>##==%%%%oooooooooo,,>>>>>>>>oooooooo==##>>##$$;;;;$$    ",
"  OO>>>>##%%%%oooooooooo,,,,>>>>::::::oooo##==##>>##OO====$$    ",
"  OO>>>>##%%%%oooooooooo,,,,>>>>::::::oooo##==##>>##OO====$$    ",
"  OO>>::oo%%%%oooooooo,,,,====::::%%%%oo##====##>>##OO==;;$$    ",
"  OO>>::oo%%%%oooooooo,,,,====::::%%%%oo##====##>>##OO==;;$$    ",
"  OO::::oo%%%%oooo::##,,==##oo::::oo####======##>>##OO@@@@$$    ",
"  OO::::oo%%%%oooo::##,,==##oo::::oo####======##>>##OO@@@@$$    ",
"  ..::::oo%%%%oooo>>##,,##,,oo::::##>>##======##>>##OO====OO    ",
"  ..::::oo%%%%oooo>>##,,##,,oo::::##>>##======##>>##OO====OO    ",
"  ....::::oo%%oo##,,##,,,,,,%%::>>==>>####==##>>##OOOO@@OOOO    ",
"  ....::::oo%%oo##,,##,,,,,,%%::>>==>>####==##>>##OOOO@@OOOO    ",
"    ..::::oo==######oo,,,,,,,,>>>>>>>>####==##>>##OO====..      ",
"    ..::::oo==######oo,,,,,,,,>>>>>>>>####==##>>##OO====..      ",
"    ....::>>######oooo,,,,,,,,,,>>>>>>######>>##OOOO@@....      ",
"    ....::>>######oooo,,,,,,,,,,>>>>>>######>>##OOOO@@....      ",
"      ..>>>>####oooooooo,,,,,,####>>########>>##OO==%%..        ",
"      ..>>>>####oooooooo,,,,,,####>>########>>##OO==%%..        ",
"      OOOO>>::oo%%oo######,,,,,,,,,,##==######OO..XX....        ",
"      OOOO>>::oo%%oo######,,,,,,,,,,##==######OO..XX....        ",
"        OO::::oooo##==####==========######>>##..%%%%..          ",
"        OO::::oooo##==####==========######>>##..%%%%..          ",
"        ....::::>>####============####>>>>##....XX....          ",
"        ....::::>>####============####>>>>##....XX....          ",
"          ..OO>>>>>>>>############>>>>>>oo....%%....            ",
"          ..OO>>>>>>>>############>>>>>>oo....%%....            ",
"            OOOO>>>>>>>>>>>>>>>>>>>>##oo....XX....              ",
"            OOOO>>>>>>>>>>>>>>>>>>>>##oo....XX....              ",
"              OOOOOO>>>>>>>>>>>>####............                ",
"              OOOOOO>>>>>>>>>>>>####............                ",
"                  OOOOOO########............                    ",
"                  OOOOOO########............                    ",
"                      OOOOOOOO..........                        ",
"                      OOOOOOOO..........                        ",
"                                                                ",
"                                                                "
};
