/* XPM */
static char * 3_xpm[] = {
"64 64 14 1",
" 	c #9CDB43",
".	c #4E4E4E",
"+	c #7E7E7E",
"@	c #97989C",
"#	c #B8B9BB",
"$	c #9597A1",
"%	c #73747B",
"&	c #D6D6D6",
"*	c #919090",
"=	c #6D6F7D",
"-	c #C9C9C9",
";	c #AEAFB6",
">	c #DEDEDE",
",	c #BABBC0",
"                                                                ",
"                                                                ",
"                      ....++++++++@@@@......                    ",
"                      ....++++++++@@@@......                    ",
"                  ......@@####++++++$$$$$$....                  ",
"                  ......@@####++++++$$$$$$....                  ",
"                ....%%@@&&&&&&####**..======....                ",
"                ....%%@@&&&&&&####**..======....                ",
"              ....%%&&&&&&&&&&&&&&%%....$$$$$$..                ",
"              ....%%&&&&&&&&&&&&&&%%....$$$$$$..                ",
"              ..%%&&&&--@@@@%%------%%..======++++              ",
"              ..%%&&&&--@@@@%%------%%..======++++              ",
"            ..++&&&&--@@;;$$$$%%------....$$;;;;++              ",
"            ..++&&&&--@@;;$$$$%%------....$$;;;;++              ",
"            ++@@&&@@@@;;$$$$$$$$%%%%--%%++@@@@@@....            ",
"            ++@@&&@@@@;;$$$$$$$$%%%%--%%++@@@@@@....            ",
"          ++++@@&&;;;;$$$$$$>>$$$$$$--@@++++;;$$$$..            ",
"          ++++@@&&;;;;$$$$$$>>$$$$$$--@@++++;;$$$$..            ",
"          ++@@&&@@;;$$$$%%%%>>$$$$$$@@&&@@++======..            ",
"          ++@@&&@@;;$$$$%%%%>>$$$$$$@@&&@@++======..            ",
"          ++&&&&%%$$$$%%%%>>>>%%$$;;@@&&--..$$$$$$..            ",
"          ++&&&&%%$$$$%%%%>>>>%%$$;;@@&&--..$$$$$$..            ",
"          ++&&--@@$$$$>>>>--$$>>>>;;;;----..====@@@@@@          ",
"          ++&&--@@$$$$>>>>--$$>>>>;;;;----..====@@@@@@          ",
"        ++++----$$$$%%------&&&&>>@@$$----....;;,,,,@@          ",
"        ++++----$$$$%%------&&&&>>@@$$----....;;,,,,@@          ",
"        ++%%--%%$$$$%%%%%%@@@@@@@@%%$$%%--%%++@@;;;;@@          ",
"        ++%%--%%$$$$%%%%%%@@@@@@@@%%$$%%--%%++@@;;;;@@          ",
"        ..%%--%%$$$$%%%%@@>>&&&&%%%%$$%%&&@@++;;,,,,@@          ",
"        ..%%--%%$$$$%%%%@@>>&&&&%%%%$$%%&&@@++;;,,,,@@          ",
"        ..%%--%%$$%%%%@@>>>>----%%%%$$@@--@@++@@@@;;@@          ",
"        ..%%--%%$$%%%%@@>>>>----%%%%$$@@--@@++@@@@;;@@          ",
"        ..%%--%%$$@@@@@@>>$$--$$%%%%;;@@&&@@++;;;;;;@@          ",
"        ..%%--%%$$@@@@@@>>$$--$$%%%%;;@@&&@@++;;;;;;@@          ",
"        ..%%--%%;;@@@@@@$$%%--%%@@;;;;@@&&@@++@@@@@@++          ",
"        ..%%--%%;;@@@@@@$$%%--%%@@;;;;@@&&@@++@@@@@@++          ",
"        ..%%--@@;;@@@@%%%%>>--@@@@;;;;@@--@@++;;;;;;++          ",
"        ..%%--@@;;@@@@%%%%>>--@@@@;;;;@@--@@++;;;;;;++          ",
"        ....&&&&;;%%%%%%>>>>&&;;@@@@;;&&--++++@@@@@@++          ",
"        ....&&&&;;%%%%%%>>>>&&;;@@@@;;&&--++++@@@@@@++          ",
"          ++&&&&$$%%%%%%>>>>&&&&@@@@;;&&--++;;;;;;++..          ",
"          ++&&&&$$%%%%%%>>>>&&&&@@@@;;&&--++;;;;;;++..          ",
"          ++&&--%%%%%%@@>>>>>>--@@@@@@&&&&++@@@@@@..            ",
"          ++&&--%%%%%%@@>>>>>>--@@@@@@&&&&++@@@@@@..            ",
"          ++%%--%%%%@@@@>>>>@@--@@@@@@&&@@++;;;;$$..            ",
"          ++%%--%%%%@@@@>>>>@@--@@@@@@&&@@++;;;;$$..            ",
"          ....%%--;;;;@@@@>>>>>>;;;;&&@@++++======..            ",
"          ....%%--;;;;@@@@>>>>>>;;;;&&@@++++======..            ",
"            ..@@&&@@@@;;@@;;;;;;@@@@--@@++$$$$$$....            ",
"            ..@@&&@@@@;;@@;;;;;;@@@@--@@++$$$$$$....            ",
"            ++++&&&&&&@@;;;;;;@@----&&++..======..              ",
"            ++++&&&&&&@@;;;;;;@@----&&++..======..              ",
"              ++@@--&&&&@@@@@@&&&&&&%%..$$$$$$....              ",
"              ++@@--&&&&@@@@@@&&&&&&%%..$$$$$$....              ",
"              ++++@@--&&&&&&&&--&&%%....======..                ",
"              ++++@@--&&&&&&&&--&&%%....======..                ",
"                ++++@@@@&&&&--@@%%....$$$$$$....                ",
"                ++++@@@@&&&&--@@%%....$$$$$$....                ",
"                  ++++++@@@@%%......======....                  ",
"                  ++++++@@@@%%......======....                  ",
"                      ++++..................                    ",
"                      ++++..................                    ",
"                                                                ",
"                                                                "};
