/* XPM */
static char *_[] = {
/* columns rows colors chars-per-pixel */
"64 64 12 1 ",
"  c None",
". c #4E4E4E",
"X c #6D6F7D",
"o c #73747B",
"O c #7E7E7E",
"+ c #93949E",
"@ c #97989C",
"# c #9597A1",
"$ c #AEAFB6",
"% c gray79",
"& c #D0D0D0",
"* c gray87",
/* pixels */
"                                                                ",
"                                                                ",
"                    ......................                      ",
"                    ......................                      ",
"                  ....######......oooooo....OO                  ",
"                  ....######......oooooo....OO                  ",
"                ....XXXXXX....oooo%%%%%%oo@@OOOO                ",
"                ....XXXXXX....oooo%%%%%%oo@@OOOO                ",
"                ..######....oo%%%%%%%%%%&&&&@@OOOO              ",
"                ..######....oo%%%%%%%%%%&&&&@@OOOO              ",
"              ....XXXXXX..oo%%%%%%oooo@@&&&&&&@@..              ",
"              ....XXXXXX..oo%%%%%%oooo@@&&&&&&@@..              ",
"              ..######....%%%%%%oo$$$$$$@@&&&&%%....            ",
"              ..######....%%%%%%oo$$$$$$@@&&&&%%....            ",
"            ....XXXXXX..oo%%oooo$$$$$$$$$$@@oo%%oo..            ",
"            ....XXXXXX..oo%%oooo$$$$$$$$$$@@oo%%oo..            ",
"            ..######....oo%%##$$$$$$$$$$$$####%%oo....          ",
"            ..######....oo%%##$$$$$$$$$$$$####%%oo....          ",
"            ..XXXXXX..oo%%oo$$$$$$$$$$$$######oo%%oo..          ",
"            ..XXXXXX..oo%%oo$$$$$$$$$$$$######oo%%oo..          ",
"            ..######..%%%%@@$$$$**&&##%%######oo%%%%..          ",
"            ..######..%%%%@@$$$$**&&##%%######oo%%%%..          ",
"          ....XXXXXX..%%&&$$$$$$**##******######%%%%OO          ",
"          ....XXXXXX..%%&&$$$$$$**##******######%%%%OO          ",
"          ..######..OO&&&&$$$$&&%%##%%%%**######&&&&OOOO        ",
"          ..######..OO&&&&$$$$&&%%##%%%%**######&&&&OOOO        ",
"          ..XXXXXXOO@@&&@@$$$$**%%######%%%%##$$@@&&@@..        ",
"          ..XXXXXXOO@@&&@@$$$$**%%######%%%%##$$@@&&@@..        ",
"          ..####$$OO@@&&@@$$##%%**##**##%%##&&$$@@&&oo..        ",
"          ..####$$OO@@&&@@$$##%%**##**##%%##&&$$@@&&oo..        ",
"          ..XX++++OO@@&&@@##****##**##%%##$$&&$$oo%%oo..        ",
"          ..XX++++OO@@&&@@##****##**##%%##$$&&$$oo%%oo..        ",
"          ..$$$$$$OO@@%%oo##%%****####&&@@&&**##oo%%oo..        ",
"          ..$$$$$$OO@@%%oo##%%****####&&@@&&**##oo%%oo..        ",
"          ..++++++OOoo%%oo##oooo**oo&&@@******##oo%%@@OO        ",
"          ..++++++OOoo%%oo##oooo**oo&&@@******##oo%%@@OO        ",
"          ..$$$$$$..oo%%oo##oo****@@@@@@****oo##oo&&@@OO        ",
"          ..$$$$$$..oo%%oo##oo****@@@@@@****oo##oo&&@@OO        ",
"          ..++++XX....%%%%##oooo&&****oo%%oooo##&&&&OOOO        ",
"          ..++++XX....%%%%##oooo&&****oo%%oooo##&&&&OOOO        ",
"          ..OO######..%%%%##$$@@&&&&%%oo%%oo@@$$&&&&OO          ",
"          ..OO######..%%%%##$$@@&&&&%%oo%%oo@@$$&&&&OO          ",
"            ..XXXXXX..%%%%@@$$$$@@%%%%oo%%@@$$@@&&&&OO          ",
"            ..XXXXXX..%%%%@@$$$$@@%%%%oo%%@@$$@@&&&&OO          ",
"            ..######..oo&&@@$$$$oooooooo@@$$$$@@&&@@OO          ",
"            ..######..oo&&@@$$$$oooooooo@@$$$$@@&&@@OO          ",
"            ..XXXXXX..OO@@&&######oo@@@@$$$$$$&&@@OOOO          ",
"            ..XXXXXX..OO@@&&######oo@@@@$$$$$$&&@@OOOO          ",
"            ....##$$$$OO@@%%oooo##$$$$$$$$@@@@&&@@OO            ",
"            ....##$$$$OO@@%%oooo##$$$$$$$$@@@@&&@@OO            ",
"              ..++++++OO..%%%%%%@@$$$$$$@@&&&&&&OOOO            ",
"              ..++++++OO..%%%%%%@@$$$$$$@@&&&&&&OOOO            ",
"              OOOO$$$$##..oo&&&&&&@@@@@@&&&&&&@@OO              ",
"              OOOO$$$$##..oo&&&&&&@@@@@@&&&&&&@@OO              ",
"                OOXXXXXX..OO@@&&&&&&&&&&&&&&@@OOOO              ",
"                OOXXXXXX..OO@@&&&&&&&&&&&&&&@@OOOO              ",
"                ....####$$OOOO@@@@&&&&&&@@@@OOOO                ",
"                ....####$$OOOO@@@@&&&&&&@@@@OOOO                ",
"                  ..OO++++++OOOOOO@@@@@@OOOOOO                  ",
"                  ..OO++++++OOOOOO@@@@@@OOOOOO                  ",
"                    OOOOOOOOOOOOOOOOOOOOOO                      ",
"                    OOOOOOOOOOOOOOOOOOOOOO                      ",
"                                                                ",
"                                                                "
};
