/* XPM */
static char *_[] = {
/* columns rows colors chars-per-pixel */
"64 64 14 1 ",
"  c None",
". c #4E4E4E",
"X c #6D6F7D",
"o c #73747B",
"O c #7E7E7E",
"+ c #919090",
"@ c #93949E",
"# c #97989C",
"$ c #9597A1",
"% c gray67",
"& c #AEAFB6",
"* c gray79",
"= c #D0D0D0",
"- c gray87",
/* pixels */
"                                                                ",
"                                                                ",
"                        ................OO                      ",
"                        ................OO                      ",
"                    ............oooooo##%%%%OO                  ",
"                    ............oooooo##%%%%OO                  ",
"                ............oooo****========%%%%++              ",
"                ............oooo****========%%%%++              ",
"              ....$$....oooo******==============....            ",
"              ....$$....oooo******==============....            ",
"            ....XX....oo******oo##########********....          ",
"            ....XX....oo******oo##########********....          ",
"          ....$$....oo******##&&&&&&&&&&$$oo********....        ",
"          ....$$....oo******##&&&&&&&&&&$$oo********....        ",
"          ..XXXX..oo****oo##&&&&&&&&&&$$$$$$oooo******OO        ",
"          ..XXXX..oo****oo##&&&&&&&&&&$$$$$$oooo******OO        ",
"        ....$$....oo**oo&&&&&&&&&&&&$$$$$$$$$$$$oo**==OOOO      ",
"        ....$$....oo**oo&&&&&&&&&&&&$$$$$$$$$$$$oo**==OOOO      ",
"        ..XXXX..oo**oo&&&&&&&&&&&&$$$$$$$$$$$$$$$$##====OO      ",
"        ..XXXX..oo**oo&&&&&&&&&&&&$$$$$$$$$$$$$$$$##====OO      ",
"      ....$$....oo**##&&&&&&&&--**$$******$$$$$$&&##==**....    ",
"      ....$$....oo**##&&&&&&&&--**$$******$$$$$$&&##==**....    ",
"      ..XXXX..oo**##&&&&&&&&--**$$----------$$&&&&&&oo****..    ",
"      ..XXXX..oo**##&&&&&&&&--**$$----------$$&&&&&&oo****..    ",
"    ....$$....##==##&&&&&&**--$$$$**--****--&&&&&&$$oo****..OO  ",
"    ....$$....##==##&&&&&&**--$$$$**--****--&&&&&&$$oo****..OO  ",
"    ..XXXX..##==##&&&&&&$$--**--$$$$$$$$======&&$$$$$$oo**==OO  ",
"    ..XXXX..##==##&&&&&&$$--**--$$$$$$$$======&&$$$$$$oo**==OO  ",
"    ..$$$$OO##==##&&&&$$$$****$$$$----&&&&==&&**$$$$$$##====OO  ",
"    ..$$$$OO##==##&&&&$$$$****$$$$----&&&&==&&**$$$$$$##====OO  ",
"    ..XX@@OO##==##&&$$$$----**$$--$$&&==&&$$$$**$$$$&&##====OO  ",
"    ..XX@@OO##==##&&$$$$----**$$--$$&&==&&$$$$**$$$$&&##====OO  ",
"    ..&&&&OO##==oo$$$$$$**--oooo&&&&====oooo**--$$&&&&##====OO  ",
"    ..&&&&OO##==oo$$$$$$**--oooo&&&&====oooo**--$$&&&&##====OO  ",
"    ..@@@@OO##**oo$$$$$$oooo**####====oooo------&&&&&&##====OO  ",
"    ..@@@@OO##**oo$$$$$$oooo**####====oooo------&&&&&&##====OO  ",
"    ..&&&&OOoo**oo$$$$$$oo--==--####oooo**----##&&&&&&##====OO  ",
"    ..&&&&OOoo**oo$$$$$$oo--==--####oooo**----##&&&&&&##====OO  ",
"    ..OO@@....oo**oo$$$$oo##==--------oo--==####&&&&##====OOOO  ",
"    ..OO@@....oo**oo$$$$oo##==--------oo--==####&&&&##====OOOO  ",
"      OO$$$$..oo**oo$$&&&&####********##====####&&&&##====OO    ",
"      OO$$$$..oo**oo$$&&&&####********##====####&&&&##====OO    ",
"      ....XX....oo**##&&&&&&oo******######==##&&&&##====OOOO    ",
"      ....XX....oo**##&&&&&&oo******######==##&&&&##====OOOO    ",
"        ..$$$$..oo==##&&&&$$$$oooo##########&&&&&&##====OO      ",
"        ..$$$$..oo==##&&&&$$$$oooo##########&&&&&&##====OO      ",
"        ....XX..OO##==oo$$$$$$############&&&&&&##====OOOO      ",
"        ....XX..OO##==oo$$$$$$############&&&&&&##====OOOO      ",
"          ..&&&&OO##****oooo&&&&&&&&&&&&&&&&####======OO        ",
"          ..&&&&OO##****oooo&&&&&&&&&&&&&&&&####======OO        ",
"          OOOO@@OO..oo****==##&&&&&&&&&&&&##========OO..        ",
"          OOOO@@OO..oo****==##&&&&&&&&&&&&##========OO..        ",
"            OOOO$$....##======############========....          ",
"            OOOO$$....##======############========....          ",
"              ....XXOOOO####====================....            ",
"              ....XXOOOO####====================....            ",
"                ..OOOOOOOOOO####============OO....              ",
"                ..OOOOOOOOOO####============OO....              ",
"                    OOOOOOOOOOOO########OO....                  ",
"                    OOOOOOOOOOOO########OO....                  ",
"                        OOOOOOOOOOOOOOOO..                      ",
"                        OOOOOOOOOOOOOOOO..                      ",
"                                                                ",
"                                                                "
};
