/* XPM */
static char *_[] = {
/* columns rows colors chars-per-pixel */
"64 64 14 1 ",
"  c None",
". c #4E4E4E",
"X c #73747B",
"o c #7E7E7E",
"O c #97989C",
"+ c #9B9B9B",
"@ c #9597A1",
"# c #A4A4A8",
"$ c #ABACAF",
"% c #AEAFB6",
"& c #B8B9BB",
"* c gray79",
"= c #D0D0D0",
"- c gray87",
/* pixels */
"                                                                ",
"                                                                ",
"                        ..........oooooo                        ",
"                        ..........oooooo                        ",
"                  ........XXXXXXOO&&&&oooooo..                  ",
"                  ........XXXXXXOO&&&&oooooo..                  ",
"                ....XXXXXX****========&&&&##....                ",
"                ....XXXXXX****========&&&&##....                ",
"            ......XX********==============**XX......            ",
"            ......XX********==============**XX......            ",
"          ....XXXX********OOOOOOOOOOXX********XXXX....          ",
"          ....XXXX********OOOOOOOOOOXX********XXXX....          ",
"        ....XX********OOOO%%%%%%%%@@@@XXXX********XXoooo        ",
"        ....XX********OOOO%%%%%%%%@@@@XXXX********XXoooo        ",
"        ..XX******XXOO%%%%%%%%%%@@@@@@@@@@XXXX**====OOoo        ",
"        ..XX******XXOO%%%%%%%%%%@@@@@@@@@@XXXX**====OOoo        ",
"      ....XX****XX%%%%%%%%%%%%@@@@@@@@@@@@@@@@OO====OO....      ",
"      ....XX****XX%%%%%%%%%%%%@@@@@@@@@@@@@@@@OO====OO....      ",
"    ....XX****XX%%%%%%%%%%%%@@@@@@@@@@@@@@@@%%%%OO==**XX....    ",
"    ....XX****XX%%%%%%%%%%%%@@@@@@@@@@@@@@@@%%%%OO==**XX....    ",
"    ..XX******OO%%%%%%%%----**@@******@@@@%%%%%%XX******XX..    ",
"    ..XX******OO%%%%%%%%----**@@******@@@@%%%%%%XX******XX..    ",
"    ..XX****OO%%%%%%%%----**@@----------%%%%%%@@@@XX****OO++    ",
"    ..XX****OO%%%%%%%%----**@@----------%%%%%%@@@@XX****OO++    ",
"  ....XX====OO%%%%%%**--**@@@@**--**==----%%@@@@@@XX**==$$++++  ",
"  ....XX====OO%%%%%%**--**@@@@**--**==----%%@@@@@@XX**==$$++++  ",
"  ..XX====OO%%%%%%@@--****--@@@@@@%%======**@@@@@@@@OO====$$++  ",
"  ..XX====OO%%%%%%@@--****--@@@@@@%%======**@@@@@@@@OO====$$++  ",
"  ..OO====OO%%%%@@@@****--@@@@----%%%%==**@@**@@%%%%OO====$$++  ",
"  ..OO====OO%%%%@@@@****--@@@@----%%%%==**@@**@@%%%%OO====$$++  ",
"  ooOO====OO%%@@@@----**@@@@--%%%%==@@@@**@@**%%%%%%OO====$$++  ",
"  ooOO====OO%%@@@@----**@@@@--%%%%==@@@@**@@**%%%%%%OO====$$++  ",
"  ooOO====XX@@@@@@**--XX--OO%%%%==**XXXX@@**--%%%%%%OO====OO++  ",
"  ooOO====XX@@@@@@**--XX--OO%%%%==**XXXX@@**--%%%%%%OO====OO++  ",
"  ooOO==**XX@@@@@@XXXX**--OOOO==**XXXX--------%%%%%%OO====OOoo  ",
"  ooOO==**XX@@@@@@XXXX**--OOOO==**XXXX--------%%%%%%OO====OOoo  ",
"  ooOO****XX@@@@@@XX--==----OOXXXXXX**------OO%%%%%%OO====OOoo  ",
"  ooOO****XX@@@@@@XX--==----OOXXXXXX**------OO%%%%%%OO====OOoo  ",
"  oo..XX****XX@@@@XXOO====--------XX--====OOOO%%%%OO====OOoooo  ",
"  oo..XX****XX@@@@XXOO====--------XX--====OOOO%%%%OO====OOoooo  ",
"    ..XX****XX@@%%%%OOOO********==OO======OOOO%%%%OO====OOoo    ",
"    ..XX****XX@@%%%%OOOO********==OO======OOOO%%%%OO====OOoo    ",
"    ..XX******OO%%%%%%XXXX****==OOOOOO==OOOO%%%%OO======OO..    ",
"    ..XX******OO%%%%%%XXXX****==OOOOOO==OOOO%%%%OO======OO..    ",
"    ....XX**==OO%%%%@@@@XXXXOOOOOOOOOOOOOO%%%%%%OO====OO....    ",
"    ....XX**==OO%%%%@@@@XXXXOOOOOOOOOOOOOO%%%%%%OO====OO....    ",
"      ....OO====XX@@@@@@%%OOOOOOOOOOOO%%%%%%%%OO====XX....      ",
"      ....OO====XX@@@@@@%%OOOOOOOOOOOO%%%%%%%%OO====XX....      ",
"        ooOO==****XXXX%%%%%%%%%%%%%%%%%%%%OOOO====**XX..        ",
"        ooOO==****XXXX%%%%%%%%%%%%%%%%%%%%OOOO====**XX..        ",
"        ooooXX******==OOOO%%%%%%%%%%%%OOOO======**XX....        ",
"        ooooXX******==OOOO%%%%%%%%%%%%OOOO======**XX....        ",
"          ....XXOO========OOOOOOOOOOOO======**XXXX....          ",
"          ....XXOO========OOOOOOOOOOOO======**XXXX....          ",
"            ..ooooOO======================**XX......            ",
"            ..ooooOO======================**XX......            ",
"                ooooOOOOOO============OOXXXX....                ",
"                ooooOOOOOO============OOXXXX....                ",
"                  ooooooooOOOOOOOOOOXX........                  ",
"                  ooooooooOOOOOOOOOOXX........                  ",
"                        oooooooooo......                        ",
"                        oooooooooo......                        ",
"                                                                ",
"                                                                "
};
