/* XPM */
static char * 7_xpm[] = {
"64 64 18 1",
" 	c #9CDB43",
".	c #4E4E4E",
"+	c #7E7E7E",
"@	c #9B9B9B",
"#	c #73747B",
"$	c #97989C",
"%	c #B8B9BB",
"&	c #ABABAB",
"*	c #C9C9C9",
"=	c #D0D0D0",
"-	c #919090",
";	c #A4A4A8",
">	c #9597A1",
",	c #6D6F7D",
"'	c #AEAFB6",
")	c #93949E",
"!	c #DEDEDE",
"~	c #BABBC0",
"                                                                ",
"                                                                ",
"                      ........++++++++@@                        ",
"                      ........++++++++@@                        ",
"                  ......####$$%%&&++++++....                    ",
"                  ......####$$%%&&++++++....                    ",
"              ......******======%%%%&&--........                ",
"              ......******======%%%%&&--........                ",
"            ....********============;;##....>>....              ",
"            ....********============;;##....>>....              ",
"          ....********$$$$$$$$$$##******##....,,..++            ",
"          ....********$$$$$$$$$$##******##....,,..++            ",
"        ....******==$$''''''''>>>>##******##....''++++          ",
"        ....******==$$''''''''>>>>##******##....''++++          ",
"        ..******$$$$''''''''>>>>>>>>####****$$++))))..          ",
"        ..******$$$$''''''''>>>>>>>>####****$$++))))..          ",
"      ....****$$''''''''''>>>>>>>>>>>>>>##==$$++++>>....        ",
"      ....****$$''''''''''>>>>>>>>>>>>>>##==$$++++>>....        ",
"      ..****$$''''''''''>>>>>>>>>>>>>>>>''$$==$$..,,,,..        ",
"      ..****$$''''''''''>>>>>>>>>>>>>>>>''$$==$$..,,,,..        ",
"    ....**==$$''''''>>!!**>>******>>>>''''$$**##....>>..@@      ",
"    ....**==$$''''''>>!!**>>******>>>>''''$$**##....>>..@@      ",
"    ..**==$$''''''>>!!**>>!!!!!!!!!!''''''>>##**##..))''@@      ",
"    ..**==$$''''''>>!!**>>!!!!!!!!!!''''''>>##**##..))''@@      ",
"  ..++====$$''''>>**!!>>>>**!!**==!!''''>>>>##**##++@@~~@@@@    ",
"  ..++====$$''''>>**!!>>>>**!!**==!!''''>>>>##**##++@@~~@@@@    ",
"  ++====$$''''>>>>!!**!!>>>>>>''======>>>>>>>>##==$$@@''''@@    ",
"  ++====$$''''>>>>!!**!!>>>>>>''======>>>>>>>>##==$$@@''''@@    ",
"  ++====$$''>>>>>>****>>>>!!!!''''==>>**>>>>''$$==$$@@~~~~@@    ",
"  ++====$$''>>>>>>****>>>>!!!!''''==>>**>>>>''$$==$$@@~~~~@@    ",
"  ++====$$>>>>>>!!!!**>>!!''''==>>>>>>**>>''''$$==$$++''''@@    ",
"  ++====$$>>>>>>!!!!**>>!!''''==>>>>>>**>>''''$$==$$++''''@@    ",
"  ++==**##>>>>>>**!!##$$''''==**####**!!''''''$$==$$++''~~@@    ",
"  ++==**##>>>>>>**!!##$$''''==**####**!!''''''$$==$$++''~~@@    ",
"  ++****##>>>>>>####==$$$$==**####!!!!!!''''''$$==$$++))))@@    ",
"  ++****##>>>>>>####==$$$$==**####!!!!!!''''''$$==$$++))))@@    ",
"  ..****##>>>>>>##!!==!!$$######**!!!!$$''''''$$==$$++''''++    ",
"  ..****##>>>>>>##!!==!!$$######**!!!!$$''''''$$==$$++''''++    ",
"  ....****##>>>>$$$$==!!!!!!!!##!!==$$$$''''$$==$$++++))++++    ",
"  ....****##>>>>$$$$==!!!!!!!!##!!==$$$$''''$$==$$++++))++++    ",
"    ..****##''''''$$##******==$$====$$$$''''$$==$$++''''..      ",
"    ..****##''''''$$##******==$$====$$$$''''$$==$$++''''..      ",
"    ....**==$$''''>>##****==$$$$$$==$$''''$$==$$++++))....      ",
"    ....**==$$''''>>##****==$$$$$$==$$''''$$==$$++++))....      ",
"      ..====$$''>>>>>>##$$$$$$$$$$$$''''''$$==$$++''>>..        ",
"      ..====$$''>>>>>>##$$$$$$$$$$$$''''''$$==$$++''>>..        ",
"      ++++==**##>>>>''$$$$$$$$$$$$''''''$$==$$++..,,....        ",
"      ++++==**##>>>>''$$$$$$$$$$$$''''''$$==$$++..,,....        ",
"        ++******##$$''''''''''''''''$$$$====$$..>>>>..          ",
"        ++******##$$''''''''''''''''$$$$====$$..>>>>..          ",
"        ....****====$$''''''''''''$$======$$....,,....          ",
"        ....****====$$''''''''''''$$======$$....,,....          ",
"          ..++========$$$$$$$$$$$$======##....>>....            ",
"          ..++========$$$$$$$$$$$$======##....>>....            ",
"            ++++====================$$##....,,....              ",
"            ++++====================$$##....,,....              ",
"              ++++++============$$$$............                ",
"              ++++++============$$$$............                ",
"                  ++++++$$$$$$$$............                    ",
"                  ++++++$$$$$$$$............                    ",
"                      ++++++++..........                        ",
"                      ++++++++..........                        ",
"                                                                ",
"                                                                "};
