/* XPM */
static char *_[] = {
/* columns rows colors chars-per-pixel */
"64 64 18 1 ",
"  c None",
". c #4E4E4E",
"X c #6D6F7D",
"o c #73747B",
"O c #7E7E7E",
"+ c #919090",
"@ c #93949E",
"# c #97989C",
"$ c #9B9B9B",
"% c #9597A1",
"& c #A4A4A8",
"* c gray67",
"= c #AEAFB6",
"- c #B8B9BB",
"; c #BABBC0",
": c gray79",
"> c #D0D0D0",
", c gray87",
/* pixels */
"                                                                ",
"                                                                ",
"                      ........OOOOOOOO$$                        ",
"                      ........OOOOOOOO$$                        ",
"                  ......oooo##--**OOOOOO....                    ",
"                  ......oooo##--**OOOOOO....                    ",
"              ......::::::>>>>>>----**++........                ",
"              ......::::::>>>>>>----**++........                ",
"            ....::::::::>>>>>>>>>>>>&&oo....%%....              ",
"            ....::::::::>>>>>>>>>>>>&&oo....%%....              ",
"          ....::::::::##########oo::::::oo....XX..OO            ",
"          ....::::::::##########oo::::::oo....XX..OO            ",
"        ....::::::>>##========%%%%oo::::::oo....==OOOO          ",
"        ....::::::>>##========%%%%oo::::::oo....==OOOO          ",
"        ..::::::####========%%%%%%%%oooo::::##OO@@@@..          ",
"        ..::::::####========%%%%%%%%oooo::::##OO@@@@..          ",
"      ....::::##==========%%%%%%%%%%%%%%oo>>##OOOO%%....        ",
"      ....::::##==========%%%%%%%%%%%%%%oo>>##OOOO%%....        ",
"      ..::::##==========%%%%%%%%%%%%%%%%==##>>##..XXXX..        ",
"      ..::::##==========%%%%%%%%%%%%%%%%==##>>##..XXXX..        ",
"    ....::>>##======%%,,::%%::::::%%%%====##::oo....%%..$$      ",
"    ....::>>##======%%,,::%%::::::%%%%====##::oo....%%..$$      ",
"    ..::>>##======%%,,::%%,,,,,,,,,,======%%oo::oo..@@==$$      ",
"    ..::>>##======%%,,::%%,,,,,,,,,,======%%oo::oo..@@==$$      ",
"  ..OO>>>>##====%%::,,%%%%::,,::>>,,====%%%%oo::ooOO$$;;$$$$    ",
"  ..OO>>>>##====%%::,,%%%%::,,::>>,,====%%%%oo::ooOO$$;;$$$$    ",
"  OO>>>>##====%%%%,,::,,%%%%%%==>>>>>>%%%%%%%%oo>>##$$====$$    ",
"  OO>>>>##====%%%%,,::,,%%%%%%==>>>>>>%%%%%%%%oo>>##$$====$$    ",
"  OO>>>>##==%%%%%%::::%%%%,,,,====>>%%::%%%%==##>>##$$;;;;$$    ",
"  OO>>>>##==%%%%%%::::%%%%,,,,====>>%%::%%%%==##>>##$$;;;;$$    ",
"  OO>>>>##%%%%%%,,,,::%%,,====>>%%%%%%::%%====##>>##OO====$$    ",
"  OO>>>>##%%%%%%,,,,::%%,,====>>%%%%%%::%%====##>>##OO====$$    ",
"  OO>>::oo%%%%%%::,,oo##====>>::oooo::,,======##>>##OO==;;$$    ",
"  OO>>::oo%%%%%%::,,oo##====>>::oooo::,,======##>>##OO==;;$$    ",
"  OO::::oo%%%%%%oooo>>####>>::oooo,,,,,,======##>>##OO@@@@$$    ",
"  OO::::oo%%%%%%oooo>>####>>::oooo,,,,,,======##>>##OO@@@@$$    ",
"  ..::::oo%%%%%%oo,,>>,,##oooooo::,,,,##======##>>##OO====OO    ",
"  ..::::oo%%%%%%oo,,>>,,##oooooo::,,,,##======##>>##OO====OO    ",
"  ....::::oo%%%%####>>,,,,,,,,oo,,>>####====##>>##OOOO@@OOOO    ",
"  ....::::oo%%%%####>>,,,,,,,,oo,,>>####====##>>##OOOO@@OOOO    ",
"    ..::::oo======##oo::::::>>##>>>>####====##>>##OO====..      ",
"    ..::::oo======##oo::::::>>##>>>>####====##>>##OO====..      ",
"    ....::>>##====%%oo::::>>######>>##====##>>##OOOO@@....      ",
"    ....::>>##====%%oo::::>>######>>##====##>>##OOOO@@....      ",
"      ..>>>>##==%%%%%%oo############======##>>##OO==%%..        ",
"      ..>>>>##==%%%%%%oo############======##>>##OO==%%..        ",
"      OOOO>>::oo%%%%==############======##>>##OO..XX....        ",
"      OOOO>>::oo%%%%==############======##>>##OO..XX....        ",
"        OO::::::oo##================####>>>>##..%%%%..          ",
"        OO::::::oo##================####>>>>##..%%%%..          ",
"        ....::::>>>>##============##>>>>>>##....XX....          ",
"        ....::::>>>>##============##>>>>>>##....XX....          ",
"          ..OO>>>>>>>>############>>>>>>oo....%%....            ",
"          ..OO>>>>>>>>############>>>>>>oo....%%....            ",
"            OOOO>>>>>>>>>>>>>>>>>>>>##oo....XX....              ",
"            OOOO>>>>>>>>>>>>>>>>>>>>##oo....XX....              ",
"              OOOOOO>>>>>>>>>>>>####............                ",
"              OOOOOO>>>>>>>>>>>>####............                ",
"                  OOOOOO########............                    ",
"                  OOOOOO########............                    ",
"                      OOOOOOOO..........                        ",
"                      OOOOOOOO..........                        ",
"                                                                ",
"                                                                "
};
