/* XPM */
static char *_[] = {
/* columns rows colors chars-per-pixel */
"64 64 15 1 ",
"  c None",
". c #4E4E4E",
"X c #6D6F7D",
"o c #73747B",
"O c #7E7E7E",
"+ c #919090",
"@ c #97989C",
"# c #9597A1",
"$ c #AEAFB6",
"% c #B8B9BB",
"& c #BABBC0",
"* c gray79",
"= c #D0D0D0",
"- c gray84",
"; c gray87",
/* pixels */
"                                                                ",
"                                                                ",
"                      ....OOOOOOOO@@@@......                    ",
"                      ....OOOOOOOO@@@@......                    ",
"                  ......@@%%%%OOOOOO######....                  ",
"                  ......@@%%%%OOOOOO######....                  ",
"                ....oo@@------%%%%++..XXXXXX....                ",
"                ....oo@@------%%%%++..XXXXXX....                ",
"              ....oo--------------oo....######..                ",
"              ....oo--------------oo....######..                ",
"              ..oo----**@@@@oo******oo..XXXXXXOOOO              ",
"              ..oo----**@@@@oo******oo..XXXXXXOOOO              ",
"            ..OO----**@@$$####oo******....##$$$$OO              ",
"            ..OO----**@@$$####oo******....##$$$$OO              ",
"            OO@@--@@@@$$########oooo**ooOO@@@@@@....            ",
"            OO@@--@@@@$$########oooo**ooOO@@@@@@....            ",
"          OOOO@@--$$$$##############**@@OOOO$$####..            ",
"          OOOO@@--$$$$##############**@@OOOO$$####..            ",
"          OO@@--@@$$################@@--@@OOXXXXXX..            ",
"          OO@@--@@$$################@@--@@OOXXXXXX..            ",
"          OO----oo####;;**##**####$$@@--**..######..            ",
"          OO----oo####;;**##**####$$@@--**..######..            ",
"          OO--**@@####;;##;;;;;;$$$$$$****..XXXX@@@@@@          ",
"          OO--**@@####;;##;;;;;;$$$$$$****..XXXX@@@@@@          ",
"        OOOO****####****##**--;;$$$$##****....$$&&&&@@          ",
"        OOOO****####****##**--;;$$$$##****....$$&&&&@@          ",
"        OOoo**oo####;;**##$$$$----####oo**ooOO@@$$$$@@          ",
"        OOoo**oo####;;**##$$$$----####oo**ooOO@@$$$$@@          ",
"        ..oo**oo####**;;$$;;$$--##**##oo--@@OO$$&&&&@@          ",
"        ..oo**oo####**;;$$;;$$--##**##oo--@@OO$$&&&&@@          ",
"        ..oo**oo##;;;;$$;;$$**####**##@@**@@OO@@@@$$@@          ",
"        ..oo**oo##;;;;$$;;$$**####**##@@**@@OO@@@@$$@@          ",
"        ..oo**oo##--;;;;$$##**oo**;;$$@@--@@OO$$$$$$@@          ",
"        ..oo**oo##--;;;;$$##**oo**;;$$@@--@@OO$$$$$$@@          ",
"        ..oo**oo$$@@@@;;oo**oo;;;;;;$$@@--@@OO@@@@@@OO          ",
"        ..oo**oo$$@@@@;;oo**oo;;;;;;$$@@--@@OO@@@@@@OO          ",
"        ..oo**@@$$@@;;;;oooooo;;;;@@$$@@**@@OO$$$$$$OO          ",
"        ..oo**@@$$@@;;;;oooooo;;;;@@$$@@**@@OO$$$$$$OO          ",
"        ....----$$oooo**;;;;@@--@@@@$$--**OOOO@@@@@@OO          ",
"        ....----$$oooo**;;;;@@--@@@@$$--**OOOO@@@@@@OO          ",
"          OO----####oo**----@@--@@@@$$--**OO$$$$$$OO..          ",
"          OO----####oo**----@@--@@@@$$--**OO$$$$$$OO..          ",
"          OO--**oo####@@----@@**@@$$@@----OO@@@@@@..            ",
"          OO--**oo####@@----@@**@@$$@@----OO@@@@@@..            ",
"          OOoo**oo##$$@@@@@@@@@@$$$$@@--@@OO$$$$##..            ",
"          OOoo**oo##$$@@@@@@@@@@$$$$@@--@@OO$$$$##..            ",
"          ....oo**$$$$$$@@@@@@$$$$$$--@@OOOOXXXXXX..            ",
"          ....oo**$$$$$$@@@@@@$$$$$$--@@OOOOXXXXXX..            ",
"            ..@@--@@@@$$$$$$$$$$@@@@**@@OO######....            ",
"            ..@@--@@@@$$$$$$$$$$@@@@**@@OO######....            ",
"            OOOO------@@$$$$$$@@****--OO..XXXXXX..              ",
"            OOOO------@@$$$$$$@@****--OO..XXXXXX..              ",
"              OO@@**----@@@@@@------oo..######....              ",
"              OO@@**----@@@@@@------oo..######....              ",
"              OOOO@@**--------**--oo....XXXXXX..                ",
"              OOOO@@**--------**--oo....XXXXXX..                ",
"                OOOO@@@@----**@@oo....######....                ",
"                OOOO@@@@----**@@oo....######....                ",
"                  OOOOOO@@@@oo......XXXXXX....                  ",
"                  OOOOOO@@@@oo......XXXXXX....                  ",
"                      OOOO..................                    ",
"                      OOOO..................                    ",
"                                                                ",
"                                                                "
};
