/* XPM */
static char *_[] = {
/* columns rows colors chars-per-pixel */
"64 64 7 1 ",
"  c None",
". c #4E4E4E",
"X c #6D6F7D",
"o c #7E7E7E",
"O c #93949E",
"+ c #9597A1",
"@ c #AEAFB6",
/* pixels */
"                                                                ",
"                                                                ",
"                      oooooooooooo                              ",
"                      oooooooooooo                              ",
"                      oo@@@@@@@@oo                              ",
"                      oo@@@@@@@@oo                              ",
"                      ooOOOOOOOOoo                              ",
"                      ooOOOOOOOOoo                              ",
"                      oo@@@@@@@@oo                              ",
"                      oo@@@@@@@@oo                              ",
"                      ..XXXXXXXX..                              ",
"                      ..XXXXXXXX..                              ",
"                      ..++++++++..                              ",
"                      ..++++++++..                              ",
"                      ooOOOOOOOOoo                              ",
"                      ooOOOOOOOOoo                              ",
"                      oo@@@@@@@@oo                              ",
"                      oo@@@@@@@@oo                              ",
"                      ooOOOOOOOOoo                              ",
"                      ooOOOOOOOOoo                              ",
"                      ..++++++++..                              ",
"                      ..++++++++..                              ",
"                      ..XXXXXXXX..                              ",
"                      ..XXXXXXXX..                              ",
"                      oo@@@@@@@@oo                              ",
"                      oo@@@@@@@@oo                              ",
"                      ooOOOOOOOOoo                              ",
"                      ooOOOOOOOOoo                              ",
"                      oo@@@@@@@@oo                              ",
"                      oo@@@@@@@@oo                              ",
"                      ooOOOOOOOOoo                              ",
"                      ooOOOOOOOOoo                              ",
"                      oo@@@@@@@@oo                              ",
"                      oo@@@@@@@@oo                              ",
"                      ooOOOOOOOOoo                              ",
"                      ooOOOOOOOOoo                              ",
"                      oo@@@@@@@@oo                              ",
"                      oo@@@@@@@@oo                              ",
"                      ooOOOOOOOOoo                              ",
"                      ooOOOOOOOOoo                              ",
"                      oo@@@@@@@@oo                              ",
"                      oo@@@@@@@@oo                              ",
"                      ooOOOOOOOOoo                              ",
"                      ooOOOOOOOOoo                              ",
"                      ..++++++++..                              ",
"                      ..++++++++..                              ",
"                      ..XXXXXXXX..                              ",
"                      ..XXXXXXXX..                              ",
"                      ..++++++++..                              ",
"                      ..++++++++..                              ",
"                      ..XXXXXXXX..                              ",
"                      ..XXXXXXXX..                              ",
"                      ..++++++++..                              ",
"                      ..++++++++..                              ",
"                      ..XXXXXXXX..                              ",
"                      ..XXXXXXXX..                              ",
"                      ..++++++++..                              ",
"                      ..++++++++..                              ",
"                      ..XXXXXXXX..                              ",
"                      ..XXXXXXXX..                              ",
"                      ............                              ",
"                      ............                              ",
"                                                                ",
"                                                                "
};
