/* XPM */
static char * 9_xpm[] = {
"64 64 7 1",
" 	c #9CDB43",
".	c #7E7E7E",
"+	c #AEAFB6",
"@	c #93949E",
"#	c #4E4E4E",
"$	c #6D6F7D",
"%	c #9597A1",
"                                                                ",
"                                                                ",
"                      ............                              ",
"                      ............                              ",
"                      ..++++++++..                              ",
"                      ..++++++++..                              ",
"                      ..@@@@@@@@..                              ",
"                      ..@@@@@@@@..                              ",
"                      ..++++++++..                              ",
"                      ..++++++++..                              ",
"                      ##$$$$$$$$##                              ",
"                      ##$$$$$$$$##                              ",
"                      ##%%%%%%%%##                              ",
"                      ##%%%%%%%%##                              ",
"                      ..@@@@@@@@..                              ",
"                      ..@@@@@@@@..                              ",
"                      ..++++++++..                              ",
"                      ..++++++++..                              ",
"                      ..@@@@@@@@..                              ",
"                      ..@@@@@@@@..                              ",
"                      ##%%%%%%%%##                              ",
"                      ##%%%%%%%%##                              ",
"                      ##$$$$$$$$##                              ",
"                      ##$$$$$$$$##                              ",
"                      ..++++++++..                              ",
"                      ..++++++++..                              ",
"                      ..@@@@@@@@..                              ",
"                      ..@@@@@@@@..                              ",
"                      ..++++++++..                              ",
"                      ..++++++++..                              ",
"                      ..@@@@@@@@..                              ",
"                      ..@@@@@@@@..                              ",
"                      ..++++++++..                              ",
"                      ..++++++++..                              ",
"                      ..@@@@@@@@..                              ",
"                      ..@@@@@@@@..                              ",
"                      ..++++++++..                              ",
"                      ..++++++++..                              ",
"                      ..@@@@@@@@..                              ",
"                      ..@@@@@@@@..                              ",
"                      ..++++++++..                              ",
"                      ..++++++++..                              ",
"                      ..@@@@@@@@..                              ",
"                      ..@@@@@@@@..                              ",
"                      ##%%%%%%%%##                              ",
"                      ##%%%%%%%%##                              ",
"                      ##$$$$$$$$##                              ",
"                      ##$$$$$$$$##                              ",
"                      ##%%%%%%%%##                              ",
"                      ##%%%%%%%%##                              ",
"                      ##$$$$$$$$##                              ",
"                      ##$$$$$$$$##                              ",
"                      ##%%%%%%%%##                              ",
"                      ##%%%%%%%%##                              ",
"                      ##$$$$$$$$##                              ",
"                      ##$$$$$$$$##                              ",
"                      ##%%%%%%%%##                              ",
"                      ##%%%%%%%%##                              ",
"                      ##$$$$$$$$##                              ",
"                      ##$$$$$$$$##                              ",
"                      ############                              ",
"                      ############                              ",
"                                                                ",
"                                                                "};
