/* XPM */
static char *chest1[] = {
/* columns rows colors chars-per-pixel */
"64 64 17 1 ",
"  c None",
". c #101620",
"X c #151D28",
"o c #1F2A3A",
"O c #473819",
"+ c #28374C",
"@ c #32445C",
"# c #364C69",
"$ c #B3924E",
"% c #C5A35B",
"& c #DFBA6C",
"* c #F7D897",
"= c #FADFA6",
"- c #F7DDA8",
"; c #FFE7B6",
": c #FFEDC7",
"> c #FFF6E2",
/* pixels */
"                                                                ",
"                                                                ",
"                                                                ",
"                                                                ",
"                                                                ",
"                                                                ",
"                                                                ",
"                                                                ",
"                                                                ",
"                                                                ",
"                                                                ",
"                                                                ",
"                                                                ",
"                                                                ",
"                                                                ",
"                                                                ",
"                                                                ",
"                                                                ",
"                                                                ",
"                                                                ",
"                                                                ",
"                                                                ",
"                                                                ",
"                                                                ",
"                                                                ",
"                                                                ",
"                                                                ",
"                                                                ",
"                                                                ",
"                                                                ",
"          ==++++++++++++++++++++++++++++++++++++++++==          ",
"          ==++++++++++++++++++++++++++++++++++++++++==          ",
"          ::@@@@@@@@@@@@@@@@@@@@@@@@@@@@@@@@@@@@@@@@::          ",
"          ::@@@@@@@@@@@@@@@@@@@@@@@@@@@@@@@@@@@@@@@@::          ",
"          >>########################################>>          ",
"          >>########################################>>          ",
"          >>########################################>>          ",
"          >>########################################>>          ",
"          ::@@@@@@@@@@@@@@@@@@@@@@@@@@@@@@@@@@@@@@@@::          ",
"          ::@@@@@@@@@@@@@@@@@@@@@@@@@@@@@@@@@@@@@@@@::          ",
"          ;;++++++++++++++++++++++++++++++++++++++++;;          ",
"          ;;++++++++++++++++++++++++++++++++++++++++;;          ",
"          ==oooooooooooooooooooooooooooooooooooooooo==          ",
"          ==oooooooooooooooooooooooooooooooooooooooo==          ",
"          ==oooooooooooooooo--------oooooooooooooooo==          ",
"          ==oooooooooooooooo--------oooooooooooooooo==          ",
"          ********************OOOO********************          ",
"          ********************OOOO********************          ",
"          &&&&&&&&&&&&&&&&&&&&OOOO&&&&&&&&&&&&&&&&&&&&          ",
"          &&&&&&&&&&&&&&&&&&&&OOOO&&&&&&&&&&&&&&&&&&&&          ",
"          $$%%%%%%XXXXXXXXXX%%%%%%%%XXXXXXXXXX%%%%%%$$          ",
"          $$%%%%%%XXXXXXXXXX%%%%%%%%XXXXXXXXXX%%%%%%$$          ",
"          $$$$%%XXXXXXXXXXXXXXXXXXXXXXXXXXXXXXXX%%$$$$          ",
"          $$$$%%XXXXXXXXXXXXXXXXXXXXXXXXXXXXXXXX%%$$$$          ",
"          $$$$....XXXXXXXXXXXXXXXXXXXXXXXXXXXX....$$$$          ",
"          $$$$....XXXXXXXXXXXXXXXXXXXXXXXXXXXX....$$$$          ",
"          $$$$....................................$$$$          ",
"          $$$$....................................$$$$          ",
"                                                                ",
"                                                                ",
"                                                                ",
"                                                                ",
"                                                                ",
"                                                                "
};
