/* XPM */
static char *chest2[] = {
/* columns rows colors chars-per-pixel */
"64 64 18 1 ",
"  c None",
". c #221613",
"X c #271916",
"o c #2A1C19",
"O c #35231E",
"+ c #101620",
"@ c #151D28",
"# c #3C2923",
"$ c #473819",
"% c #4F352E",
"& c #243042",
"* c #2B3B51",
"= c #B3924E",
"- c #C5A35B",
"; c #DFBA6C",
": c #FADFA6",
"> c #FFEDC7",
", c #FFF6E2",
/* pixels */
"                                                                ",
"                                                                ",
"                                                                ",
"                                                                ",
"                                                                ",
"                                                                ",
"                                                                ",
"                                                                ",
"                                                                ",
"                                                                ",
"                                                                ",
"                                                                ",
"                                                                ",
"                                                                ",
"                                                                ",
"                                                                ",
"                                                                ",
"                                                                ",
"                                                                ",
"                                                                ",
"                                                                ",
"                                                                ",
"                                                                ",
"                                                                ",
"                                                                ",
"                                                                ",
"                                                                ",
"                                                                ",
"                                                                ",
"                                                                ",
"          ::****************************************::          ",
"          ::****************************************::          ",
"          >>&&&&&&&&&&&&&&&&,,,,,,,,&&&&&&&&&&&&&&&&>>          ",
"          >>&&&&&&&&&&&&&&&&,,,,,,,,&&&&&&&&&&&&&&&&>>          ",
"          ,,,,,,,,,,,,,,,,,,,,$$$$,,,,,,,,,,,,,,,,,,,,          ",
"          ,,,,,,,,,,,,,,,,,,,,$$$$,,,,,,,,,,,,,,,,,,,,          ",
"          OOXXXXXXXXXXXXXXXXXXXXXXXXXXXXXXXXXXXXXXXXOO          ",
"          OOXXXXXXXXXXXXXXXXXXXXXXXXXXXXXXXXXXXXXXXXOO          ",
"          ooOOOOOOOOOOOOOOOOOOOOOOOOOOOOOOOOOOOOOOOOoo          ",
"          ooOOOOOOOOOOOOOOOOOOOOOOOOOOOOOOOOOOOOOOOOoo          ",
"          ..########################################..          ",
"          ..########################################..          ",
"          ..%%%%%%%%%%%%%%%%%%%%%%%%%%%%%%%%%%%%%%%%..          ",
"          ..%%%%%%%%%%%%%%%%%%%%%%%%%%%%%%%%%%%%%%%%..          ",
"          oo%%%%%%%%%%%%%%%%%%%%%%%%%%%%%%%%%%%%%%%%oo          ",
"          oo%%%%%%%%%%%%%%%%%%%%%%%%%%%%%%%%%%%%%%%%oo          ",
"          OO%%%%%%%%%%%%%%%%%%%%%%%%%%%%%%%%%%%%%%%%OO          ",
"          OO%%%%%%%%%%%%%%%%%%%%%%%%%%%%%%%%%%%%%%%%OO          ",
"          ;;;;;;;;;;;;;;;;;;;;$$$$;;;;;;;;;;;;;;;;;;;;          ",
"          ;;;;;;;;;;;;;;;;;;;;$$$$;;;;;;;;;;;;;;;;;;;;          ",
"          ==------@@@@@@@@@@--------@@@@@@@@@@------==          ",
"          ==------@@@@@@@@@@--------@@@@@@@@@@------==          ",
"          ====--@@@@@@@@@@@@@@@@@@@@@@@@@@@@@@@@--====          ",
"          ====--@@@@@@@@@@@@@@@@@@@@@@@@@@@@@@@@--====          ",
"          ====++++@@@@@@@@@@@@@@@@@@@@@@@@@@@@++++====          ",
"          ====++++@@@@@@@@@@@@@@@@@@@@@@@@@@@@++++====          ",
"          ====++++++++++++++++++++++++++++++++++++====          ",
"          ====++++++++++++++++++++++++++++++++++++====          ",
"                                                                ",
"                                                                ",
"                                                                ",
"                                                                ",
"                                                                ",
"                                                                "
};
