/* XPM */
static char * chest2_xpm[] = {
"64 64 18 1",
" 	c #9CDB43",
".	c #FADFA6",
"+	c #2B3B51",
"@	c #FFEDC7",
"#	c #243042",
"$	c #FFF6E2",
"%	c #473819",
"&	c #35231E",
"*	c #271916",
"=	c #2A1C19",
"-	c #221613",
";	c #3C2923",
">	c #4F352E",
",	c #DFBA6C",
"'	c #B3924E",
")	c #C5A35B",
"!	c #151D28",
"~	c #101620",
"                                                                ",
"                                                                ",
"                                                                ",
"                                                                ",
"                                                                ",
"                                                                ",
"                                                                ",
"                                                                ",
"                                                                ",
"                                                                ",
"                                                                ",
"                                                                ",
"                                                                ",
"                                                                ",
"                                                                ",
"                                                                ",
"                                                                ",
"                                                                ",
"                                                                ",
"                                                                ",
"                                                                ",
"                                                                ",
"                                                                ",
"                                                                ",
"                                                                ",
"                                                                ",
"                                                                ",
"                                                                ",
"                                                                ",
"                                                                ",
"          ..++++++++++++++++++++++++++++++++++++++++..          ",
"          ..++++++++++++++++++++++++++++++++++++++++..          ",
"          @@################$$$$$$$$################@@          ",
"          @@################$$$$$$$$################@@          ",
"          $$$$$$$$$$$$$$$$$$$$%%%%$$$$$$$$$$$$$$$$$$$$          ",
"          $$$$$$$$$$$$$$$$$$$$%%%%$$$$$$$$$$$$$$$$$$$$          ",
"          &&****************************************&&          ",
"          &&****************************************&&          ",
"          ==&&&&&&&&&&&&&&&&&&&&&&&&&&&&&&&&&&&&&&&&==          ",
"          ==&&&&&&&&&&&&&&&&&&&&&&&&&&&&&&&&&&&&&&&&==          ",
"          --;;;;;;;;;;;;;;;;;;;;;;;;;;;;;;;;;;;;;;;;--          ",
"          --;;;;;;;;;;;;;;;;;;;;;;;;;;;;;;;;;;;;;;;;--          ",
"          -->>>>>>>>>>>>>>>>>>>>>>>>>>>>>>>>>>>>>>>>--          ",
"          -->>>>>>>>>>>>>>>>>>>>>>>>>>>>>>>>>>>>>>>>--          ",
"          ==>>>>>>>>>>>>>>>>>>>>>>>>>>>>>>>>>>>>>>>>==          ",
"          ==>>>>>>>>>>>>>>>>>>>>>>>>>>>>>>>>>>>>>>>>==          ",
"          &&>>>>>>>>>>>>>>>>>>>>>>>>>>>>>>>>>>>>>>>>&&          ",
"          &&>>>>>>>>>>>>>>>>>>>>>>>>>>>>>>>>>>>>>>>>&&          ",
"          ,,,,,,,,,,,,,,,,,,,,%%%%,,,,,,,,,,,,,,,,,,,,          ",
"          ,,,,,,,,,,,,,,,,,,,,%%%%,,,,,,,,,,,,,,,,,,,,          ",
"          ''))))))!!!!!!!!!!))))))))!!!!!!!!!!))))))''          ",
"          ''))))))!!!!!!!!!!))))))))!!!!!!!!!!))))))''          ",
"          ''''))!!!!!!!!!!!!!!!!!!!!!!!!!!!!!!!!))''''          ",
"          ''''))!!!!!!!!!!!!!!!!!!!!!!!!!!!!!!!!))''''          ",
"          ''''~~~~!!!!!!!!!!!!!!!!!!!!!!!!!!!!~~~~''''          ",
"          ''''~~~~!!!!!!!!!!!!!!!!!!!!!!!!!!!!~~~~''''          ",
"          ''''~~~~~~~~~~~~~~~~~~~~~~~~~~~~~~~~~~~~''''          ",
"          ''''~~~~~~~~~~~~~~~~~~~~~~~~~~~~~~~~~~~~''''          ",
"                                                                ",
"                                                                ",
"                                                                ",
"                                                                ",
"                                                                ",
"                                                                "};
