/* XPM */
static char * chest1_xpm[] = {
"64 64 17 1",
" 	c #9CDB43",
".	c #FADFA6",
"+	c #28374C",
"@	c #FFEDC7",
"#	c #32445C",
"$	c #FFF6E2",
"%	c #364C69",
"&	c #FFE7B6",
"*	c #1F2A3A",
"=	c #F7DDA8",
"-	c #F7D897",
";	c #473819",
">	c #DFBA6C",
",	c #B3924E",
"'	c #C5A35B",
")	c #151D28",
"!	c #101620",
"                                                                ",
"                                                                ",
"                                                                ",
"                                                                ",
"                                                                ",
"                                                                ",
"                                                                ",
"                                                                ",
"                                                                ",
"                                                                ",
"                                                                ",
"                                                                ",
"                                                                ",
"                                                                ",
"                                                                ",
"                                                                ",
"                                                                ",
"                                                                ",
"                                                                ",
"                                                                ",
"                                                                ",
"                                                                ",
"                                                                ",
"                                                                ",
"                                                                ",
"                                                                ",
"                                                                ",
"                                                                ",
"                                                                ",
"                                                                ",
"          ..++++++++++++++++++++++++++++++++++++++++..          ",
"          ..++++++++++++++++++++++++++++++++++++++++..          ",
"          @@########################################@@          ",
"          @@########################################@@          ",
"          $$%%%%%%%%%%%%%%%%%%%%%%%%%%%%%%%%%%%%%%%%$$          ",
"          $$%%%%%%%%%%%%%%%%%%%%%%%%%%%%%%%%%%%%%%%%$$          ",
"          $$%%%%%%%%%%%%%%%%%%%%%%%%%%%%%%%%%%%%%%%%$$          ",
"          $$%%%%%%%%%%%%%%%%%%%%%%%%%%%%%%%%%%%%%%%%$$          ",
"          @@########################################@@          ",
"          @@########################################@@          ",
"          &&++++++++++++++++++++++++++++++++++++++++&&          ",
"          &&++++++++++++++++++++++++++++++++++++++++&&          ",
"          ..****************************************..          ",
"          ..****************************************..          ",
"          ..****************========****************..          ",
"          ..****************========****************..          ",
"          --------------------;;;;--------------------          ",
"          --------------------;;;;--------------------          ",
"          >>>>>>>>>>>>>>>>>>>>;;;;>>>>>>>>>>>>>>>>>>>>          ",
"          >>>>>>>>>>>>>>>>>>>>;;;;>>>>>>>>>>>>>>>>>>>>          ",
"          ,,''''''))))))))))''''''''))))))))))'''''',,          ",
"          ,,''''''))))))))))''''''''))))))))))'''''',,          ",
"          ,,,,''))))))))))))))))))))))))))))))))'',,,,          ",
"          ,,,,''))))))))))))))))))))))))))))))))'',,,,          ",
"          ,,,,!!!!))))))))))))))))))))))))))))!!!!,,,,          ",
"          ,,,,!!!!))))))))))))))))))))))))))))!!!!,,,,          ",
"          ,,,,!!!!!!!!!!!!!!!!!!!!!!!!!!!!!!!!!!!!,,,,          ",
"          ,,,,!!!!!!!!!!!!!!!!!!!!!!!!!!!!!!!!!!!!,,,,          ",
"                                                                ",
"                                                                ",
"                                                                ",
"                                                                ",
"                                                                ",
"                                                                "};
