/* XPM */
static char * sprite_player_xpm[] = {
"64 64 8 1",
" 	c #9CDB43",
".	c #000000",
"+	c #949494",
"@	c #F6A6E2",
"#	c #545454",
"$	c #CCCCCC",
"%	c #B3B3B3",
"&	c #FFFFFF",
"                                                                ",
"                                                                ",
"                                                                ",
"                                                                ",
"                                                                ",
"                                                                ",
"                                                                ",
"                                                                ",
"                                                                ",
"                                                                ",
"                                                                ",
"                                                                ",
"                                                                ",
"                                                                ",
"                                                                ",
"                                                                ",
"                      ....            ....                      ",
"                      ....            ....                      ",
"                    ..++..  ........  ..++..                    ",
"                    ..++..  ........  ..++..                    ",
"                    ..@@++..##$$$$##..++@@..                    ",
"                    ..@@++..##$$$$##..++@@..                    ",
"                    ..##%%%%$$$$$$$$%%%%##..                    ",
"                    ..##%%%%$$$$$$$$%%%%##..                    ",
"                  ....$$##%%%%$$$$%%%%##$$....                  ",
"                  ....$$##%%%%$$$$%%%%##$$....                  ",
"                ..$$$$##%%&&++%%%%++&&%%##$$$$..                ",
"                ..$$$$##%%&&++%%%%++&&%%##$$$$..                ",
"                  ..##%%&&##&&++++&&##&&%%##..                  ",
"                  ..##%%&&##&&++++&&##&&%%##..                  ",
"                ..$$%%&&......&&&&......&&%%$$..                ",
"                ..$$%%&&......&&&&......&&%%$$..                ",
"                  ....&&....&&....&&....&&....                  ",
"                  ....&&....&&....&&....&&....                  ",
"                    ..........&&&&..........                    ",
"                    ..........&&&&..........                    ",
"                  ..##$$....&&&&&&&&....$$##..                  ",
"                  ..##$$....&&&&&&&&....$$##..                  ",
"                ..$$$$$$$$....@@@@....$$$$$$$$..                ",
"                ..$$$$$$$$....@@@@....$$$$$$$$..                ",
"                ..$$....$$##........##++....$$..                ",
"                ..$$....$$##........##++....$$..                ",
"                ..####..$$$$$$&&&&$$$$$$..####..                ",
"                ..####..$$$$$$&&&&$$$$$$..####..                ",
"                ..##..$$++++$$&&&&$$%%%%$$..##..                ",
"                ..##..$$++++$$&&&&$$%%%%$$..##..                ",
"                  ......$$$$$$$$$$$$$$$$......                  ",
"                  ......$$$$$$$$$$$$$$$$......                  ",
"                    ..$$....$$####$$....$$..                    ",
"                    ..$$....$$####$$....$$..                    ",
"                    ....##$$........$$##....                    ",
"                    ....##$$........$$##....                    ",
"                      ....................                      ",
"                      ....................                      ",
"                          ............                          ",
"                          ............                          ",
"                                                                ",
"                                                                ",
"                                                                ",
"                                                                ",
"                                                                ",
"                                                                ",
"                                                                ",
"                                                                "};
