/* XPM */
static char *sprite_enemy[] = {
/* columns rows colors chars-per-pixel */
"64 64 9 1 ",
"  c None",
". c #0A0A09",
"X c #393939",
"o c #502318",
"O c #6B381E",
"+ c #535353",
"@ c gray38",
"# c gray48",
"$ c gray78",
/* pixels */
"                                                                ",
"                                                                ",
"                                                                ",
"                                                                ",
"                                                                ",
"                                                                ",
"                                                                ",
"                                                                ",
"                      ........      ....                        ",
"                      ........      ....                        ",
"                    ..++..++......  ..++..                      ",
"                    ..++..++......  ..++..                      ",
"                    ..##..++..++......##..                      ",
"                    ..##..++..++......##..                      ",
"                    ..++..##..##..++..++..                      ",
"                    ..++..##..##..++..++..                      ",
"                  ..##....++..++..##..++..                      ",
"                  ..##....++..++..##..++..                      ",
"                  ..++..##....##....##....                      ",
"                  ..++..##....##....##....                      ",
"                  ......++....++....++......                    ",
"                  ......++....++....++......                    ",
"                  ..##..$$....++....##..##..                    ",
"                  ..##..$$....++....##..##..                    ",
"                  ..$$..##....$$....$$..##..                    ",
"                  ..$$..##....$$....$$..##..                    ",
"                  ..##..++....##....##..$$..                    ",
"                  ..##..++....##....##..$$..                    ",
"                  ..++....##..++..##....  ..                    ",
"                  ..++....##..++..##....  ..                    ",
"                  ........##..$$..$$........                    ",
"                  ........##..$$..$$........                    ",
"                  ....++..##..##..##..++....                    ",
"                  ....++..##..##..##..++....                    ",
"                ..++..##..$$..++..##..##......                  ",
"                ..++..##..$$..++..##..##......                  ",
"                ..++..++..++..++..++..++..++..                  ",
"                ..++..++..++..++..++..++..++..                  ",
"                ..++##..++##++$$++##++..##++..                  ",
"                ..++##..++##++$$++##++..##++..                  ",
"                ..####..##++######++##..####..                  ",
"                ..####..##++######++##..####..                  ",
"                ..####..##..######..##..####..                  ",
"                ..####..##..######..##..####..                  ",
"                ..++##..++++######++++..##++..                  ",
"                ..++##..++++######++++..##++..                  ",
"                ..XX##XX..++oooooo++..XX##XX..                  ",
"                ..XX##XX..++oooooo++..XX##XX..                  ",
"              @@@@..++##XX..OOooOO..XX##++..@@@@                ",
"              @@@@..++##XX..OOooOO..XX##++..@@@@                ",
"              @@@@..XX++++XX......XX++++XX..@@@@                ",
"              @@@@..XX++++XX......XX++++XX..@@@@                ",
"              @@@@@@..XXXXXXXX++XXXXXXXX..@@@@@@                ",
"              @@@@@@..XXXXXXXX++XXXXXXXX..@@@@@@                ",
"              @@@@@@..++##..........++##..@@@@@@                ",
"              @@@@@@..++##..........++##..@@@@@@                ",
"                @@@@..++##..@@@@@@..++##..@@@@                  ",
"                @@@@..++##..@@@@@@..++##..@@@@                  ",
"                  @@@@......@@@@@@......@@@@                    ",
"                  @@@@......@@@@@@......@@@@                    ",
"                    @@@@@@@@@@@@@@@@@@@@@@                      ",
"                    @@@@@@@@@@@@@@@@@@@@@@                      ",
"                        @@@@@@@@@@@@@@                          ",
"                        @@@@@@@@@@@@@@                          "
};
