/* XPM */
static char * sprite_enemy_xpm[] = {
"64 64 10 1",
" 	c None",
".	c #9CDB43",
"+	c #0A0A09",
"@	c #535353",
"#	c #7A7A7A",
"$	c #C7C7C7",
"%	c #393939",
"&	c #502318",
"*	c #616161",
"=	c #6B381E",
"................................................................",
"................................................................",
"................................................................",
"................................................................",
"................................................................",
"................................................................",
"................................................................",
"................................................................",
"......................++++++++......++++........................",
"......................++++++++......++++........................",
"....................++@@++@@++++++..++@@++......................",
"....................++@@++@@++++++..++@@++......................",
"....................++##++@@++@@++++++##++......................",
"....................++##++@@++@@++++++##++......................",
"....................++@@++##++##++@@++@@++......................",
"....................++@@++##++##++@@++@@++......................",
"..................++##++++@@++@@++##++@@++......................",
"..................++##++++@@++@@++##++@@++......................",
"..................++@@++##++++##++++##++++......................",
"..................++@@++##++++##++++##++++......................",
"..................++++++@@++++@@++++@@++++++....................",
"..................++++++@@++++@@++++@@++++++....................",
"..................++##++$$++++@@++++##++##++....................",
"..................++##++$$++++@@++++##++##++....................",
"..................++$$++##++++$$++++$$++##++....................",
"..................++$$++##++++$$++++$$++##++....................",
"..................++##++@@++++##++++##++$$++....................",
"..................++##++@@++++##++++##++$$++....................",
"..................++@@++++##++@@++##++++  ++....................",
"..................++@@++++##++@@++##++++  ++....................",
"..................++++++++##++$$++$$++++++++....................",
"..................++++++++##++$$++$$++++++++....................",
"..................++++@@++##++##++##++@@++++....................",
"..................++++@@++##++##++##++@@++++....................",
"................++@@++##++$$++@@++##++##++++++..................",
"................++@@++##++$$++@@++##++##++++++..................",
"................++@@++@@++@@++@@++@@++@@++@@++..................",
"................++@@++@@++@@++@@++@@++@@++@@++..................",
"................++@@##++@@##@@$$@@##@@++##@@++..................",
"................++@@##++@@##@@$$@@##@@++##@@++..................",
"................++####++##@@######@@##++####++..................",
"................++####++##@@######@@##++####++..................",
"................++####++##++######++##++####++..................",
"................++####++##++######++##++####++..................",
"................++@@##++@@@@######@@@@++##@@++..................",
"................++@@##++@@@@######@@@@++##@@++..................",
"................++%%##%%++@@&&&&&&@@++%%##%%++..................",
"................++%%##%%++@@&&&&&&@@++%%##%%++..................",
"..............****++@@##%%++==&&==++%%##@@++****................",
"..............****++@@##%%++==&&==++%%##@@++****................",
"..............****++%%@@@@%%++++++%%@@@@%%++****................",
"..............****++%%@@@@%%++++++%%@@@@%%++****................",
"..............******++%%%%%%%%@@%%%%%%%%++******................",
"..............******++%%%%%%%%@@%%%%%%%%++******................",
"..............******++@@##++++++++++@@##++******................",
"..............******++@@##++++++++++@@##++******................",
"................****++@@##++******++@@##++****..................",
"................****++@@##++******++@@##++****..................",
"..................****++++++******++++++****....................",
"..................****++++++******++++++****....................",
"....................**********************......................",
"....................**********************......................",
"........................**************..........................",
"........................**************.........................."};
