/* XPM */
static char *sprite_player[] = {
/* columns rows colors chars-per-pixel */
"64 64 8 1 ",
"  c None",
". c black",
"X c gray33",
"o c gray58",
"O c gray70",
"+ c #F6A6E2",
"@ c gray80",
"# c white",
/* pixels */
"                                                                ",
"                                                                ",
"                                                                ",
"                                                                ",
"                                                                ",
"                                                                ",
"                                                                ",
"                                                                ",
"                                                                ",
"                                                                ",
"                                                                ",
"                                                                ",
"                                                                ",
"                                                                ",
"                                                                ",
"                                                                ",
"                      ....            ....                      ",
"                      ....            ....                      ",
"                    ..oo..  ........  ..oo..                    ",
"                    ..oo..  ........  ..oo..                    ",
"                    ..++oo..XX@@@@XX..oo++..                    ",
"                    ..++oo..XX@@@@XX..oo++..                    ",
"                    ..XXOOOO@@@@@@@@OOOOXX..                    ",
"                    ..XXOOOO@@@@@@@@OOOOXX..                    ",
"                  ....@@XXOOOO@@@@OOOOXX@@....                  ",
"                  ....@@XXOOOO@@@@OOOOXX@@....                  ",
"                ..@@@@XXOO##ooOOOOoo##OOXX@@@@..                ",
"                ..@@@@XXOO##ooOOOOoo##OOXX@@@@..                ",
"                  ..XXOO##XX##oooo##XX##OOXX..                  ",
"                  ..XXOO##XX##oooo##XX##OOXX..                  ",
"                ..@@OO##......####......##OO@@..                ",
"                ..@@OO##......####......##OO@@..                ",
"                  ....##....##....##....##....                  ",
"                  ....##....##....##....##....                  ",
"                    ..........####..........                    ",
"                    ..........####..........                    ",
"                  ..XX@@....########....@@XX..                  ",
"                  ..XX@@....########....@@XX..                  ",
"                ..@@@@@@@@....++++....@@@@@@@@..                ",
"                ..@@@@@@@@....++++....@@@@@@@@..                ",
"                ..@@....@@XX........XXoo....@@..                ",
"                ..@@....@@XX........XXoo....@@..                ",
"                ..XXXX..@@@@@@####@@@@@@..XXXX..                ",
"                ..XXXX..@@@@@@####@@@@@@..XXXX..                ",
"                ..XX..@@oooo@@####@@OOOO@@..XX..                ",
"                ..XX..@@oooo@@####@@OOOO@@..XX..                ",
"                  ......@@@@@@@@@@@@@@@@......                  ",
"                  ......@@@@@@@@@@@@@@@@......                  ",
"                    ..@@....@@XXXX@@....@@..                    ",
"                    ..@@....@@XXXX@@....@@..                    ",
"                    ....XX@@........@@XX....                    ",
"                    ....XX@@........@@XX....                    ",
"                      ....................                      ",
"                      ....................                      ",
"                          ............                          ",
"                          ............                          ",
"                                                                ",
"                                                                ",
"                                                                ",
"                                                                ",
"                                                                ",
"                                                                ",
"                                                                ",
"                                                                "
};
