/* XPM */
static char *tile_wall[] = {
/* columns rows colors chars-per-pixel */
"64 64 16 1 ",
"  c None",
". c #261F1C",
"X c #2D2724",
"o c #322B28",
"O c #64342F",
"+ c #633A35",
"@ c #71413B",
"# c #A3673F",
"$ c #AD683A",
"% c #BB7547",
"& c #BF8F57",
"* c #CD9756",
"= c #DBA463",
"- c #D5B789",
"; c #E6C48F",
": c #F4D29C",
/* pixels */
"                                                                ",
"                                                                ",
"                            oooo                                ",
"                            oooo                                ",
"                          oo::::oo                              ",
"                          oo::::oo                              ",
"                        XX&&==::::oo                            ",
"                        XX&&==::::oo                            ",
"                      oo--&&--====::oo                          ",
"                      oo--&&--====::oo                          ",
"                    oo&&--&&--&&======oo                        ",
"                    oo&&--&&--&&======oo                        ",
"                  ..**::&&&&--&&##==%%==oo                      ",
"                  ..**::&&&&--&&##==%%==oo                      ",
"                oo**;;$$====--::======%%==oo                    ",
"                oo**;;$$====--::======%%==oo                    ",
"                ..$$$$****;;::--==%%==%%==oo                    ",
"                ..$$$$****;;::--==%%==%%==oo                    ",
"                oo==$$&&**;;;;;;&&##====oooo                    ",
"                oo==$$&&**;;;;;;&&##====oooo                    ",
"                oooo..XX##------&&&&##XXoooo                    ",
"                oooo..XX##------&&&&##XXoooo                    ",
"                oo@@@@XXXXXX%%XXXXoooooooooo                    ",
"                oo@@@@XXXXXX%%XXXXoooooooooo                    ",
"                oo@@@@OO..++##%%oooo%%%%oooo                    ",
"                oo@@@@OO..++##%%oooo%%%%oooo                    ",
"                oo@@%%%%oo%%####oooo%%%%oooo                    ",
"                oo@@%%%%oo%%####oooo%%%%oooo                    ",
"                oooo%%%%@@==++++##oo%%%%oooo                    ",
"                oooo%%%%@@==++++##oo%%%%oooo                    ",
"                oooo@@==@@==XX++##XX%%%%%%oo                    ",
"                oooo@@==@@==XX++##XX%%%%%%oo                    ",
"                ..%%oo==@@==@@++##%%%%@@%%oo                    ",
"                ..%%oo==@@==@@++##%%%%@@%%oo                    ",
"                oo%%oo==@@==oo@@%%&&%%@@%%oo                    ",
"                oo%%oo==@@==oo@@%%&&%%@@%%oo                    ",
"                oo%%OO======oo@@%%==##@@%%oo                    ",
"                oo%%OO======oo@@%%==##@@%%oo                    ",
"                oo%%....%%$$..oo%%%%==++@@oo                    ",
"                oo%%....%%$$..oo%%%%==++@@oo                    ",
"                oo%%ooOO$$==OO..@@%%==++++oo                    ",
"                oo%%ooOO$$==OO..@@%%==++++oo                    ",
"                oo@@oo@@$$**$$XX++$$==@@++XX                    ",
"                oo@@oo@@$$**$$XX++$$==@@++XX                    ",
"                oo@@oo@@@@****XX++##&&XX++XX                    ",
"                oo@@oo@@@@****XX++##&&XX++XX                    ",
"                oo@@oo@@@@$$**..++##==oo@@oo                    ",
"                oo@@oo@@@@$$**..++##==oo@@oo                    ",
"                ..@@OOoo@@%%**....##++oo@@oo                    ",
"                ..@@OOoo@@%%**....##++oo@@oo                    ",
"                ooOOOO..@@%%%%....OO++XX@@oo                    ",
"                ooOOOO..@@%%%%....OO++XX@@oo                    ",
"                ooOOOO..@@%%%%@@..@@XXXXXXoo                    ",
"                ooOOOO..@@%%%%@@..@@XXXXXXoo                    ",
"                ooooOO..OO%%@@@@oo@@XX@@oooo                    ",
"                ooooOO..OO%%@@@@oo@@XX@@oooo                    ",
"                  ooooooOOOOOOoooo@@oo++XX                      ",
"                  ooooooOOOOOOoooo@@oo++XX                      ",
"                  oooooooo@@......ooooooXX                      ",
"                  oooooooo@@......ooooooXX                      ",
"                    oooooooo........oooo                        ",
"                    oooooooo........oooo                        ",
"                                                                ",
"                                                                "
};
