/* XPM */
static char * tile_wall_xpm[] = {
"64 64 16 1",
" 	c #9CDB43",
".	c #322B28",
"+	c #F4D29C",
"@	c #2D2724",
"#	c #BF8F57",
"$	c #DBA463",
"%	c #D5B789",
"&	c #261F1C",
"*	c #CD9756",
"=	c #A3673F",
"-	c #BB7547",
";	c #E6C48F",
">	c #AD683A",
",	c #71413B",
"'	c #64342F",
")	c #633A35",
"                                                                ",
"                                                                ",
"                            ....                                ",
"                            ....                                ",
"                          ..++++..                              ",
"                          ..++++..                              ",
"                        @@##$$++++..                            ",
"                        @@##$$++++..                            ",
"                      ..%%##%%$$$$++..                          ",
"                      ..%%##%%$$$$++..                          ",
"                    ..##%%##%%##$$$$$$..                        ",
"                    ..##%%##%%##$$$$$$..                        ",
"                  &&**++####%%##==$$--$$..                      ",
"                  &&**++####%%##==$$--$$..                      ",
"                ..**;;>>$$$$%%++$$$$$$--$$..                    ",
"                ..**;;>>$$$$%%++$$$$$$--$$..                    ",
"                &&>>>>****;;++%%$$--$$--$$..                    ",
"                &&>>>>****;;++%%$$--$$--$$..                    ",
"                ..$$>>##**;;;;;;##==$$$$....                    ",
"                ..$$>>##**;;;;;;##==$$$$....                    ",
"                ....&&@@==%%%%%%####==@@....                    ",
"                ....&&@@==%%%%%%####==@@....                    ",
"                ..,,,,@@@@@@--@@@@..........                    ",
"                ..,,,,@@@@@@--@@@@..........                    ",
"                ..,,,,''&&))==--....----....                    ",
"                ..,,,,''&&))==--....----....                    ",
"                ..,,----..--====....----....                    ",
"                ..,,----..--====....----....                    ",
"                ....----,,$$))))==..----....                    ",
"                ....----,,$$))))==..----....                    ",
"                ....,,$$,,$$@@))==@@------..                    ",
"                ....,,$$,,$$@@))==@@------..                    ",
"                &&--..$$,,$$,,))==----,,--..                    ",
"                &&--..$$,,$$,,))==----,,--..                    ",
"                ..--..$$,,$$..,,--##--,,--..                    ",
"                ..--..$$,,$$..,,--##--,,--..                    ",
"                ..--''$$$$$$..,,--$$==,,--..                    ",
"                ..--''$$$$$$..,,--$$==,,--..                    ",
"                ..--&&&&-->>&&..----$$)),,..                    ",
"                ..--&&&&-->>&&..----$$)),,..                    ",
"                ..--..''>>$$''&&,,--$$))))..                    ",
"                ..--..''>>$$''&&,,--$$))))..                    ",
"                ..,,..,,>>**>>@@))>>$$,,))@@                    ",
"                ..,,..,,>>**>>@@))>>$$,,))@@                    ",
"                ..,,..,,,,****@@))==##@@))@@                    ",
"                ..,,..,,,,****@@))==##@@))@@                    ",
"                ..,,..,,,,>>**&&))==$$..,,..                    ",
"                ..,,..,,,,>>**&&))==$$..,,..                    ",
"                &&,,''..,,--**&&&&==))..,,..                    ",
"                &&,,''..,,--**&&&&==))..,,..                    ",
"                ..''''&&,,----&&&&''))@@,,..                    ",
"                ..''''&&,,----&&&&''))@@,,..                    ",
"                ..''''&&,,----,,&&,,@@@@@@..                    ",
"                ..''''&&,,----,,&&,,@@@@@@..                    ",
"                ....''&&''--,,,,..,,@@,,....                    ",
"                ....''&&''--,,,,..,,@@,,....                    ",
"                  ......''''''....,,..))@@                      ",
"                  ......''''''....,,..))@@                      ",
"                  ........,,&&&&&&......@@                      ",
"                  ........,,&&&&&&......@@                      ",
"                    ........&&&&&&&&....                        ",
"                    ........&&&&&&&&....                        ",
"                                                                ",
"                                                                "};
